<?xml version="1.0" encoding="UTF-8" standalone="no"?><svg xmlns="http://www.w3.org/2000/svg" xmlns:xlink="http://www.w3.org/1999/xlink" contentStyleType="text/css" height="749px" preserveAspectRatio="none" style="width:4220px;height:749px;background:#FFFFFF;" version="1.1" viewBox="0 0 4220 749" width="4220px" zoomAndPan="magnify"><defs/><g><!--MD5=[3c2e07c5fa3bab2c48b012088626c215]
cluster coders_combo_chatapp::firebase_options.dart--><g id="cluster_coders_combo_chatapp::firebase_options.dart"><path d="M8.5,6 L336.5,6 A3.75,3.75 0 0 1 339,8.5 L346,29.6094 L346.5,29.6094 A2.5,2.5 0 0 1 349,32.1094 L349,191.5 A2.5,2.5 0 0 1 346.5,194 L8.5,194 A2.5,2.5 0 0 1 6,191.5 L6,8.5 A2.5,2.5 0 0 1 8.5,6 " fill="none" style="stroke:#000000;stroke-width:1.5;"/><line style="stroke:#000000;stroke-width:1.5;" x1="6" x2="346" y1="29.6094" y2="29.6094"/><text fill="#000000" font-family="sans-serif" font-size="14" font-weight="bold" lengthAdjust="spacing" textLength="327" x="10" y="22.5332">coders_combo_chatapp::firebase_options.dart</text></g><!--MD5=[604f196d4f6d4ab3234307fefc8b5a7a]
cluster firebase_core_platform_interface::firebase_core_platform_interface.dart--><g id="cluster_firebase_core_platform_interface::firebase_core_platform_interface.dart"><path d="M51.5,262 L562.5,262 A3.75,3.75 0 0 1 565,264.5 L572,285.6094 L572.5,285.6094 A2.5,2.5 0 0 1 575,288.1094 L575,359.5 A2.5,2.5 0 0 1 572.5,362 L51.5,362 A2.5,2.5 0 0 1 49,359.5 L49,264.5 A2.5,2.5 0 0 1 51.5,262 " fill="none" style="stroke:#000000;stroke-width:1.5;"/><line style="stroke:#000000;stroke-width:1.5;" x1="49" x2="572" y1="285.6094" y2="285.6094"/><text fill="#000000" font-family="sans-serif" font-size="14" font-weight="bold" lengthAdjust="spacing" textLength="510" x="53" y="278.5332">firebase_core_platform_interface::firebase_core_platform_interface.dart</text></g><!--MD5=[c39bd385fb447b32734be41134b30580]
cluster coders_combo_chatapp::main.dart--><g id="cluster_coders_combo_chatapp::main.dart"><path d="M1184.5,244.5 L1426.5,244.5 A3.75,3.75 0 0 1 1429,247 L1436,268.1094 L1437.5,268.1094 A2.5,2.5 0 0 1 1440,270.6094 L1440,377 A2.5,2.5 0 0 1 1437.5,379.5 L1184.5,379.5 A2.5,2.5 0 0 1 1182,377 L1182,247 A2.5,2.5 0 0 1 1184.5,244.5 " fill="none" style="stroke:#000000;stroke-width:1.5;"/><line style="stroke:#000000;stroke-width:1.5;" x1="1182" x2="1436" y1="268.1094" y2="268.1094"/><text fill="#000000" font-family="sans-serif" font-size="14" font-weight="bold" lengthAdjust="spacing" textLength="241" x="1186" y="261.0332">coders_combo_chatapp::main.dart</text></g><!--MD5=[1b91236ccc4e258431d00b8b19fdf6ca]
cluster flutter::src::widgets::framework.dart--><g id="cluster_flutter::src::widgets::framework.dart"><path d="M1945.5,50 L2196.5,50 A3.75,3.75 0 0 1 2199,52.5 L2206,73.6094 L2366.5,73.6094 A2.5,2.5 0 0 1 2369,76.1094 L2369,147.5 A2.5,2.5 0 0 1 2366.5,150 L1945.5,150 A2.5,2.5 0 0 1 1943,147.5 L1943,52.5 A2.5,2.5 0 0 1 1945.5,50 " fill="none" style="stroke:#000000;stroke-width:1.5;"/><line style="stroke:#000000;stroke-width:1.5;" x1="1943" x2="2206" y1="73.6094" y2="73.6094"/><text fill="#000000" font-family="sans-serif" font-size="14" font-weight="bold" lengthAdjust="spacing" textLength="250" x="1947" y="66.5332">flutter::src::widgets::framework.dart</text></g><!--MD5=[89ea278c2d37c757c00550642c3261dc]
cluster coders_combo_chatapp::model::user_model.dart--><g id="cluster_coders_combo_chatapp::model::user_model.dart"><path d="M1561.5,430 L1904.5,430 A3.75,3.75 0 0 1 1907,432.5 L1914,453.6094 L1914.5,453.6094 A2.5,2.5 0 0 1 1917,456.1094 L1917,615.5 A2.5,2.5 0 0 1 1914.5,618 L1561.5,618 A2.5,2.5 0 0 1 1559,615.5 L1559,432.5 A2.5,2.5 0 0 1 1561.5,430 " fill="none" style="stroke:#000000;stroke-width:1.5;"/><line style="stroke:#000000;stroke-width:1.5;" x1="1559" x2="1914" y1="453.6094" y2="453.6094"/><text fill="#000000" font-family="sans-serif" font-size="14" font-weight="bold" lengthAdjust="spacing" textLength="342" x="1563" y="446.5332">coders_combo_chatapp::model::user_model.dart</text></g><!--MD5=[047c64212bdafd3048fdafd9a4e813e5]
cluster cloud_firestore_platform_interface::src::timestamp.dart--><g id="cluster_cloud_firestore_platform_interface::src::timestamp.dart"><path d="M1539.5,642 L1927.5,642 A3.75,3.75 0 0 1 1930,644.5 L1937,665.6094 L1937.5,665.6094 A2.5,2.5 0 0 1 1940,668.1094 L1940,739.5 A2.5,2.5 0 0 1 1937.5,742 L1539.5,742 A2.5,2.5 0 0 1 1537,739.5 L1537,644.5 A2.5,2.5 0 0 1 1539.5,642 " fill="none" style="stroke:#000000;stroke-width:1.5;"/><line style="stroke:#000000;stroke-width:1.5;" x1="1537" x2="1937" y1="665.6094" y2="665.6094"/><text fill="#000000" font-family="sans-serif" font-size="14" font-weight="bold" lengthAdjust="spacing" textLength="387" x="1541" y="658.5332">cloud_firestore_platform_interface::src::timestamp.dart</text></g><!--MD5=[79ef58e752e1af8518d0df8939a0b2c4]
cluster coders_combo_chatapp::screens::auth_screen.dart--><g id="cluster_coders_combo_chatapp::screens::auth_screen.dart"><path d="M3538.5,227 L3900.5,227 A3.75,3.75 0 0 1 3903,229.5 L3910,250.6094 L4070.5,250.6094 A2.5,2.5 0 0 1 4073,253.1094 L4073,394.5 A2.5,2.5 0 0 1 4070.5,397 L3538.5,397 A2.5,2.5 0 0 1 3536,394.5 L3536,229.5 A2.5,2.5 0 0 1 3538.5,227 " fill="none" style="stroke:#000000;stroke-width:1.5;"/><line style="stroke:#000000;stroke-width:1.5;" x1="3536" x2="3910" y1="250.6094" y2="250.6094"/><text fill="#000000" font-family="sans-serif" font-size="14" font-weight="bold" lengthAdjust="spacing" textLength="361" x="3540" y="243.5332">coders_combo_chatapp::screens::auth_screen.dart</text></g><!--MD5=[8eef6816886ed4e07d8ce52ed26c6ad6]
cluster google_sign_in::google_sign_in.dart--><g id="cluster_google_sign_in::google_sign_in.dart"><path d="M3647.5,474 L3904.5,474 A3.75,3.75 0 0 1 3907,476.5 L3914,497.6094 L3914.5,497.6094 A2.5,2.5 0 0 1 3917,500.1094 L3917,571.5 A2.5,2.5 0 0 1 3914.5,574 L3647.5,574 A2.5,2.5 0 0 1 3645,571.5 L3645,476.5 A2.5,2.5 0 0 1 3647.5,474 " fill="none" style="stroke:#000000;stroke-width:1.5;"/><line style="stroke:#000000;stroke-width:1.5;" x1="3645" x2="3914" y1="497.6094" y2="497.6094"/><text fill="#000000" font-family="sans-serif" font-size="14" font-weight="bold" lengthAdjust="spacing" textLength="256" x="3649" y="490.5332">google_sign_in::google_sign_in.dart</text></g><!--MD5=[07d50315458ddc489997f7f0298a04df]
cluster cloud_firestore::cloud_firestore.dart--><g id="cluster_cloud_firestore::cloud_firestore.dart"><path d="M3943.5,474 L4200.5,474 A3.75,3.75 0 0 1 4203,476.5 L4210,497.6094 L4210.5,497.6094 A2.5,2.5 0 0 1 4213,500.1094 L4213,571.5 A2.5,2.5 0 0 1 4210.5,574 L3943.5,574 A2.5,2.5 0 0 1 3941,571.5 L3941,476.5 A2.5,2.5 0 0 1 3943.5,474 " fill="none" style="stroke:#000000;stroke-width:1.5;"/><line style="stroke:#000000;stroke-width:1.5;" x1="3941" x2="4210" y1="497.6094" y2="497.6094"/><text fill="#000000" font-family="sans-serif" font-size="14" font-weight="bold" lengthAdjust="spacing" textLength="256" x="3945" y="490.5332">cloud_firestore::cloud_firestore.dart</text></g><!--MD5=[a8516d43435123189d1c63f98914e1c4]
cluster coders_combo_chatapp::screens::chat_screen.dart--><g id="cluster_coders_combo_chatapp::screens::chat_screen.dart"><path d="M1466.5,218 L1827.5,218 A3.75,3.75 0 0 1 1830,220.5 L1837,241.6094 L1837.5,241.6094 A2.5,2.5 0 0 1 1840,244.1094 L1840,403.5 A2.5,2.5 0 0 1 1837.5,406 L1466.5,406 A2.5,2.5 0 0 1 1464,403.5 L1464,220.5 A2.5,2.5 0 0 1 1466.5,218 " fill="none" style="stroke:#000000;stroke-width:1.5;"/><line style="stroke:#000000;stroke-width:1.5;" x1="1464" x2="1837" y1="241.6094" y2="241.6094"/><text fill="#000000" font-family="sans-serif" font-size="14" font-weight="bold" lengthAdjust="spacing" textLength="360" x="1468" y="234.5332">coders_combo_chatapp::screens::chat_screen.dart</text></g><!--MD5=[3d2da6e40ef5f0ce534a0bfcc7a76bb6]
cluster coders_combo_chatapp::screens::home_screen.dart--><g id="cluster_coders_combo_chatapp::screens::home_screen.dart"><path d="M601.5,227 L971.5,227 A3.75,3.75 0 0 1 974,229.5 L981,250.6094 L1155.5,250.6094 A2.5,2.5 0 0 1 1158,253.1094 L1158,394.5 A2.5,2.5 0 0 1 1155.5,397 L601.5,397 A2.5,2.5 0 0 1 599,394.5 L599,229.5 A2.5,2.5 0 0 1 601.5,227 " fill="none" style="stroke:#000000;stroke-width:1.5;"/><line style="stroke:#000000;stroke-width:1.5;" x1="599" x2="981" y1="250.6094" y2="250.6094"/><text fill="#000000" font-family="sans-serif" font-size="14" font-weight="bold" lengthAdjust="spacing" textLength="369" x="603" y="243.5332">coders_combo_chatapp::screens::home_screen.dart</text></g><!--MD5=[0a4548c9842207629e8a0b27d6b710e0]
cluster flutter::src::widgets::binding.dart--><g id="cluster_flutter::src::widgets::binding.dart"><path d="M619.5,50 L849.5,50 A3.75,3.75 0 0 1 852,52.5 L859,73.6094 L859.5,73.6094 A2.5,2.5 0 0 1 862,76.1094 L862,147.5 A2.5,2.5 0 0 1 859.5,150 L619.5,150 A2.5,2.5 0 0 1 617,147.5 L617,52.5 A2.5,2.5 0 0 1 619.5,50 " fill="none" style="stroke:#000000;stroke-width:1.5;"/><line style="stroke:#000000;stroke-width:1.5;" x1="617" x2="859" y1="73.6094" y2="73.6094"/><text fill="#000000" font-family="sans-serif" font-size="14" font-weight="bold" lengthAdjust="spacing" textLength="229" x="621" y="66.5332">flutter::src::widgets::binding.dart</text></g><!--MD5=[4e4a59aa8bdb4f1d70c2607eaf16b8dc]
cluster coders_combo_chatapp::screens::search_screen.dart--><g id="cluster_coders_combo_chatapp::screens::search_screen.dart"><path d="M1866.5,218 L2245.5,218 A3.75,3.75 0 0 1 2248,220.5 L2255,241.6094 L2486.5,241.6094 A2.5,2.5 0 0 1 2489,244.1094 L2489,403.5 A2.5,2.5 0 0 1 2486.5,406 L1866.5,406 A2.5,2.5 0 0 1 1864,403.5 L1864,220.5 A2.5,2.5 0 0 1 1866.5,218 " fill="none" style="stroke:#000000;stroke-width:1.5;"/><line style="stroke:#000000;stroke-width:1.5;" x1="1864" x2="2255" y1="241.6094" y2="241.6094"/><text fill="#000000" font-family="sans-serif" font-size="14" font-weight="bold" lengthAdjust="spacing" textLength="378" x="1868" y="234.5332">coders_combo_chatapp::screens::search_screen.dart</text></g><!--MD5=[e06b2be89d5a0e5a906fffa5e578fb31]
cluster flutter::src::widgets::editable_text.dart--><g id="cluster_flutter::src::widgets::editable_text.dart"><path d="M2498.5,474 L2767.5,474 A3.75,3.75 0 0 1 2770,476.5 L2777,497.6094 L2777.5,497.6094 A2.5,2.5 0 0 1 2780,500.1094 L2780,571.5 A2.5,2.5 0 0 1 2777.5,574 L2498.5,574 A2.5,2.5 0 0 1 2496,571.5 L2496,476.5 A2.5,2.5 0 0 1 2498.5,474 " fill="none" style="stroke:#000000;stroke-width:1.5;"/><line style="stroke:#000000;stroke-width:1.5;" x1="2496" x2="2777" y1="497.6094" y2="497.6094"/><text fill="#000000" font-family="sans-serif" font-size="14" font-weight="bold" lengthAdjust="spacing" textLength="268" x="2500" y="490.5332">flutter::src::widgets::editable_text.dart</text></g><!--MD5=[439df0920c2bfa256da8a548107231ea]
cluster coders_combo_chatapp::widgets::massage_textfield.dart--><g id="cluster_coders_combo_chatapp::widgets::massage_textfield.dart"><path d="M2515.5,235.5 L2915.5,235.5 A3.75,3.75 0 0 1 2918,238 L2925,259.1094 L3084.5,259.1094 A2.5,2.5 0 0 1 3087,261.6094 L3087,386 A2.5,2.5 0 0 1 3084.5,388.5 L2515.5,388.5 A2.5,2.5 0 0 1 2513,386 L2513,238 A2.5,2.5 0 0 1 2515.5,235.5 " fill="none" style="stroke:#000000;stroke-width:1.5;"/><line style="stroke:#000000;stroke-width:1.5;" x1="2513" x2="2925" y1="259.1094" y2="259.1094"/><text fill="#000000" font-family="sans-serif" font-size="14" font-weight="bold" lengthAdjust="spacing" textLength="399" x="2517" y="252.0332">coders_combo_chatapp::widgets::massage_textfield.dart</text></g><!--MD5=[5963cfa083204403626ced69a739da02]
cluster coders_combo_chatapp::widgets::single_message.dart--><g id="cluster_coders_combo_chatapp::widgets::single_message.dart"><path d="M3113.5,235.5 L3499.5,235.5 A3.75,3.75 0 0 1 3502,238 L3509,259.1094 L3509.5,259.1094 A2.5,2.5 0 0 1 3512,261.6094 L3512,386 A2.5,2.5 0 0 1 3509.5,388.5 L3113.5,388.5 A2.5,2.5 0 0 1 3111,386 L3111,238 A2.5,2.5 0 0 1 3113.5,235.5 " fill="none" style="stroke:#000000;stroke-width:1.5;"/><line style="stroke:#000000;stroke-width:1.5;" x1="3111" x2="3509" y1="259.1094" y2="259.1094"/><text fill="#000000" font-family="sans-serif" font-size="14" font-weight="bold" lengthAdjust="spacing" textLength="385" x="3115" y="252.0332">coders_combo_chatapp::widgets::single_message.dart</text></g><!--MD5=[4b79937b65db2c747a93701f648a84cf]
class coders_combo_chatapp::firebase_options.dart::DefaultFirebaseOptions--><g id="elem_coders_combo_chatapp::firebase_options.dart::DefaultFirebaseOptions"><rect codeLine="3" fill="#F1F1F1" height="136.0469" id="coders_combo_chatapp::firebase_options.dart::DefaultFirebaseOptions" rx="2.5" ry="2.5" style="stroke:#181818;stroke-width:0.5;" width="232" x="61" y="42"/><ellipse cx="98.5" cy="58" fill="#ADD1B2" rx="11" ry="11" style="stroke:#181818;stroke-width:1.0;"/><path d="M101.2656,53.875 Q101.4219,53.6563 101.6094,53.5469 Q101.7969,53.4375 102.0156,53.4375 Q102.3906,53.4375 102.625,53.7031 Q102.8594,53.9531 102.8594,54.5625 L102.8594,56.0156 Q102.8594,56.625 102.625,56.8906 Q102.3906,57.1563 102.0156,57.1563 Q101.6719,57.1563 101.4688,56.9531 Q101.2656,56.7656 101.1563,56.25 Q101.1094,55.8906 100.9219,55.7031 Q100.5938,55.3281 99.9844,55.1094 Q99.375,54.8906 98.75,54.8906 Q97.9844,54.8906 97.3438,55.2188 Q96.7188,55.5469 96.2188,56.2969 Q95.7344,57.0469 95.7344,58.0781 L95.7344,59.1719 Q95.7344,60.4063 96.625,61.2344 Q97.5156,62.0469 99.1094,62.0469 Q100.0469,62.0469 100.7031,61.7969 Q101.0938,61.6406 101.5156,61.2031 Q101.7813,60.9375 101.9219,60.8594 Q102.0781,60.7813 102.2813,60.7813 Q102.6094,60.7813 102.8594,61.0469 Q103.125,61.2969 103.125,61.6406 Q103.125,61.9844 102.7813,62.3906 Q102.2813,62.9688 101.4844,63.2969 Q100.4063,63.75 99.1094,63.75 Q97.5938,63.75 96.3906,63.125 Q95.4063,62.625 94.7188,61.5625 Q94.0313,60.4844 94.0313,59.2031 L94.0313,58.0469 Q94.0313,56.7188 94.6406,55.5781 Q95.2656,54.4219 96.3594,53.8125 Q97.4531,53.1875 98.6875,53.1875 Q99.4219,53.1875 100.0625,53.3594 Q100.7188,53.5156 101.2656,53.875 Z " fill="#000000"/><text fill="#000000" font-family="sans-serif" font-size="14" lengthAdjust="spacing" textLength="150" x="117.5" y="63.7285">DefaultFirebaseOptions</text><line style="stroke:#181818;stroke-width:0.5;" x1="62" x2="292" y1="74" y2="74"/><ellipse cx="72" cy="88.3047" fill="none" rx="3" ry="3" style="stroke:#038048;stroke-width:1.0;"/><text fill="#000000" font-family="sans-serif" font-size="14" lengthAdjust="spacing" text-decoration="underline" textLength="134" x="81" y="92.5332">FirebaseOptions web</text><ellipse cx="72" cy="105.9141" fill="none" rx="3" ry="3" style="stroke:#038048;stroke-width:1.0;"/><text fill="#000000" font-family="sans-serif" font-size="14" lengthAdjust="spacing" text-decoration="underline" textLength="157" x="81" y="110.1426">FirebaseOptions android</text><ellipse cx="72" cy="123.5234" fill="none" rx="3" ry="3" style="stroke:#038048;stroke-width:1.0;"/><text fill="#000000" font-family="sans-serif" font-size="14" lengthAdjust="spacing" text-decoration="underline" textLength="127" x="81" y="127.752">FirebaseOptions ios</text><ellipse cx="72" cy="141.1328" fill="none" rx="3" ry="3" style="stroke:#038048;stroke-width:1.0;"/><text fill="#000000" font-family="sans-serif" font-size="14" lengthAdjust="spacing" text-decoration="underline" textLength="150" x="81" y="145.3613">FirebaseOptions macos</text><ellipse cx="72" cy="158.7422" fill="none" rx="3" ry="3" style="stroke:#038048;stroke-width:1.0;"/><text fill="#000000" font-family="sans-serif" font-size="14" lengthAdjust="spacing" text-decoration="underline" textLength="206" x="81" y="162.9707">FirebaseOptions currentPlatform</text><line style="stroke:#181818;stroke-width:0.5;" x1="62" x2="292" y1="170.0469" y2="170.0469"/></g><!--MD5=[359804d5b2f0577eff58b71f78f852ea]
class firebase_core_platform_interface::firebase_core_platform_interface.dart::FirebaseOptions--><g id="elem_firebase_core_platform_interface::firebase_core_platform_interface.dart::FirebaseOptions"><rect fill="#F1F1F1" height="48" id="firebase_core_platform_interface::firebase_core_platform_interface.dart::FirebaseOptions" rx="2.5" ry="2.5" style="stroke:#181818;stroke-width:0.5;" width="137" x="108.5" y="298"/><ellipse cx="123.5" cy="314" fill="#ADD1B2" rx="11" ry="11" style="stroke:#181818;stroke-width:1.0;"/><path d="M126.2656,309.875 Q126.4219,309.6563 126.6094,309.5469 Q126.7969,309.4375 127.0156,309.4375 Q127.3906,309.4375 127.625,309.7031 Q127.8594,309.9531 127.8594,310.5625 L127.8594,312.0156 Q127.8594,312.625 127.625,312.8906 Q127.3906,313.1563 127.0156,313.1563 Q126.6719,313.1563 126.4688,312.9531 Q126.2656,312.7656 126.1563,312.25 Q126.1094,311.8906 125.9219,311.7031 Q125.5938,311.3281 124.9844,311.1094 Q124.375,310.8906 123.75,310.8906 Q122.9844,310.8906 122.3438,311.2188 Q121.7188,311.5469 121.2188,312.2969 Q120.7344,313.0469 120.7344,314.0781 L120.7344,315.1719 Q120.7344,316.4063 121.625,317.2344 Q122.5156,318.0469 124.1094,318.0469 Q125.0469,318.0469 125.7031,317.7969 Q126.0938,317.6406 126.5156,317.2031 Q126.7813,316.9375 126.9219,316.8594 Q127.0781,316.7813 127.2813,316.7813 Q127.6094,316.7813 127.8594,317.0469 Q128.125,317.2969 128.125,317.6406 Q128.125,317.9844 127.7813,318.3906 Q127.2813,318.9688 126.4844,319.2969 Q125.4063,319.75 124.1094,319.75 Q122.5938,319.75 121.3906,319.125 Q120.4063,318.625 119.7188,317.5625 Q119.0313,316.4844 119.0313,315.2031 L119.0313,314.0469 Q119.0313,312.7188 119.6406,311.5781 Q120.2656,310.4219 121.3594,309.8125 Q122.4531,309.1875 123.6875,309.1875 Q124.4219,309.1875 125.0625,309.3594 Q125.7188,309.5156 126.2656,309.875 Z " fill="#000000"/><text fill="#000000" font-family="sans-serif" font-size="14" lengthAdjust="spacing" textLength="105" x="137.5" y="319.7285">FirebaseOptions</text><line style="stroke:#181818;stroke-width:0.5;" x1="109.5" x2="244.5" y1="330" y2="330"/><line style="stroke:#181818;stroke-width:0.5;" x1="109.5" x2="244.5" y1="338" y2="338"/></g><!--MD5=[7640073d5379b80fc9a8f2b378531d44]
class coders_combo_chatapp::main.dart::MyApp--><g id="elem_coders_combo_chatapp::main.dart::MyApp"><rect codeLine="13" fill="#F1F1F1" height="83.2188" id="coders_combo_chatapp::main.dart::MyApp" rx="2.5" ry="2.5" style="stroke:#181818;stroke-width:0.5;" width="226" x="1198" y="280.5"/><ellipse cx="1285.25" cy="296.5" fill="#ADD1B2" rx="11" ry="11" style="stroke:#181818;stroke-width:1.0;"/><path d="M1288.0156,292.375 Q1288.1719,292.1563 1288.3594,292.0469 Q1288.5469,291.9375 1288.7656,291.9375 Q1289.1406,291.9375 1289.375,292.2031 Q1289.6094,292.4531 1289.6094,293.0625 L1289.6094,294.5156 Q1289.6094,295.125 1289.375,295.3906 Q1289.1406,295.6563 1288.7656,295.6563 Q1288.4219,295.6563 1288.2188,295.4531 Q1288.0156,295.2656 1287.9063,294.75 Q1287.8594,294.3906 1287.6719,294.2031 Q1287.3438,293.8281 1286.7344,293.6094 Q1286.125,293.3906 1285.5,293.3906 Q1284.7344,293.3906 1284.0938,293.7188 Q1283.4688,294.0469 1282.9688,294.7969 Q1282.4844,295.5469 1282.4844,296.5781 L1282.4844,297.6719 Q1282.4844,298.9063 1283.375,299.7344 Q1284.2656,300.5469 1285.8594,300.5469 Q1286.7969,300.5469 1287.4531,300.2969 Q1287.8438,300.1406 1288.2656,299.7031 Q1288.5313,299.4375 1288.6719,299.3594 Q1288.8281,299.2813 1289.0313,299.2813 Q1289.3594,299.2813 1289.6094,299.5469 Q1289.875,299.7969 1289.875,300.1406 Q1289.875,300.4844 1289.5313,300.8906 Q1289.0313,301.4688 1288.2344,301.7969 Q1287.1563,302.25 1285.8594,302.25 Q1284.3438,302.25 1283.1406,301.625 Q1282.1563,301.125 1281.4688,300.0625 Q1280.7813,298.9844 1280.7813,297.7031 L1280.7813,296.5469 Q1280.7813,295.2188 1281.3906,294.0781 Q1282.0156,292.9219 1283.1094,292.3125 Q1284.2031,291.6875 1285.4375,291.6875 Q1286.1719,291.6875 1286.8125,291.8594 Q1287.4688,292.0156 1288.0156,292.375 Z " fill="#000000"/><text fill="#000000" font-family="sans-serif" font-size="14" lengthAdjust="spacing" textLength="43" x="1305.75" y="302.2285">MyApp</text><line style="stroke:#181818;stroke-width:0.5;" x1="1199" x2="1423" y1="312.5" y2="312.5"/><line style="stroke:#181818;stroke-width:0.5;" x1="1199" x2="1423" y1="320.5" y2="320.5"/><ellipse cx="1209" cy="334.8047" fill="#84BE84" rx="3" ry="3" style="stroke:#038048;stroke-width:1.0;"/><text fill="#000000" font-family="sans-serif" font-size="14" lengthAdjust="spacing" textLength="200" x="1218" y="339.0332">Future&lt;Widget&gt; UserSignedIn()</text><ellipse cx="1209" cy="352.4141" fill="#84BE84" rx="3" ry="3" style="stroke:#038048;stroke-width:1.0;"/><text fill="#000000" font-family="sans-serif" font-size="14" lengthAdjust="spacing" textLength="88" x="1218" y="356.6426">Widget build()</text></g><!--MD5=[efc9ff8382eabd0f0b822d1be18a98a9]
class flutter::src::widgets::framework.dart::StatelessWidget--><g id="elem_flutter::src::widgets::framework.dart::StatelessWidget"><rect fill="#F1F1F1" height="48" id="flutter::src::widgets::framework.dart::StatelessWidget" rx="2.5" ry="2.5" style="stroke:#181818;stroke-width:0.5;" width="134" x="1959" y="86"/><ellipse cx="1974" cy="102" fill="#ADD1B2" rx="11" ry="11" style="stroke:#181818;stroke-width:1.0;"/><path d="M1976.7656,97.875 Q1976.9219,97.6563 1977.1094,97.5469 Q1977.2969,97.4375 1977.5156,97.4375 Q1977.8906,97.4375 1978.125,97.7031 Q1978.3594,97.9531 1978.3594,98.5625 L1978.3594,100.0156 Q1978.3594,100.625 1978.125,100.8906 Q1977.8906,101.1563 1977.5156,101.1563 Q1977.1719,101.1563 1976.9688,100.9531 Q1976.7656,100.7656 1976.6563,100.25 Q1976.6094,99.8906 1976.4219,99.7031 Q1976.0938,99.3281 1975.4844,99.1094 Q1974.875,98.8906 1974.25,98.8906 Q1973.4844,98.8906 1972.8438,99.2188 Q1972.2188,99.5469 1971.7188,100.2969 Q1971.2344,101.0469 1971.2344,102.0781 L1971.2344,103.1719 Q1971.2344,104.4063 1972.125,105.2344 Q1973.0156,106.0469 1974.6094,106.0469 Q1975.5469,106.0469 1976.2031,105.7969 Q1976.5938,105.6406 1977.0156,105.2031 Q1977.2813,104.9375 1977.4219,104.8594 Q1977.5781,104.7813 1977.7813,104.7813 Q1978.1094,104.7813 1978.3594,105.0469 Q1978.625,105.2969 1978.625,105.6406 Q1978.625,105.9844 1978.2813,106.3906 Q1977.7813,106.9688 1976.9844,107.2969 Q1975.9063,107.75 1974.6094,107.75 Q1973.0938,107.75 1971.8906,107.125 Q1970.9063,106.625 1970.2188,105.5625 Q1969.5313,104.4844 1969.5313,103.2031 L1969.5313,102.0469 Q1969.5313,100.7188 1970.1406,99.5781 Q1970.7656,98.4219 1971.8594,97.8125 Q1972.9531,97.1875 1974.1875,97.1875 Q1974.9219,97.1875 1975.5625,97.3594 Q1976.2188,97.5156 1976.7656,97.875 Z " fill="#000000"/><text fill="#000000" font-family="sans-serif" font-size="14" lengthAdjust="spacing" textLength="102" x="1988" y="107.7285">StatelessWidget</text><line style="stroke:#181818;stroke-width:0.5;" x1="1960" x2="2092" y1="118" y2="118"/><line style="stroke:#181818;stroke-width:0.5;" x1="1960" x2="2092" y1="126" y2="126"/></g><!--MD5=[aa3f7eeafec522ba9bc8f59b3155082c]
class flutter::src::widgets::framework.dart::StatefulWidget--><g id="elem_flutter::src::widgets::framework.dart::StatefulWidget"><rect fill="#F1F1F1" height="48" id="flutter::src::widgets::framework.dart::StatefulWidget" rx="2.5" ry="2.5" style="stroke:#181818;stroke-width:0.5;" width="124" x="2128" y="86"/><ellipse cx="2143" cy="102" fill="#ADD1B2" rx="11" ry="11" style="stroke:#181818;stroke-width:1.0;"/><path d="M2145.7656,97.875 Q2145.9219,97.6563 2146.1094,97.5469 Q2146.2969,97.4375 2146.5156,97.4375 Q2146.8906,97.4375 2147.125,97.7031 Q2147.3594,97.9531 2147.3594,98.5625 L2147.3594,100.0156 Q2147.3594,100.625 2147.125,100.8906 Q2146.8906,101.1563 2146.5156,101.1563 Q2146.1719,101.1563 2145.9688,100.9531 Q2145.7656,100.7656 2145.6563,100.25 Q2145.6094,99.8906 2145.4219,99.7031 Q2145.0938,99.3281 2144.4844,99.1094 Q2143.875,98.8906 2143.25,98.8906 Q2142.4844,98.8906 2141.8438,99.2188 Q2141.2188,99.5469 2140.7188,100.2969 Q2140.2344,101.0469 2140.2344,102.0781 L2140.2344,103.1719 Q2140.2344,104.4063 2141.125,105.2344 Q2142.0156,106.0469 2143.6094,106.0469 Q2144.5469,106.0469 2145.2031,105.7969 Q2145.5938,105.6406 2146.0156,105.2031 Q2146.2813,104.9375 2146.4219,104.8594 Q2146.5781,104.7813 2146.7813,104.7813 Q2147.1094,104.7813 2147.3594,105.0469 Q2147.625,105.2969 2147.625,105.6406 Q2147.625,105.9844 2147.2813,106.3906 Q2146.7813,106.9688 2145.9844,107.2969 Q2144.9063,107.75 2143.6094,107.75 Q2142.0938,107.75 2140.8906,107.125 Q2139.9063,106.625 2139.2188,105.5625 Q2138.5313,104.4844 2138.5313,103.2031 L2138.5313,102.0469 Q2138.5313,100.7188 2139.1406,99.5781 Q2139.7656,98.4219 2140.8594,97.8125 Q2141.9531,97.1875 2143.1875,97.1875 Q2143.9219,97.1875 2144.5625,97.3594 Q2145.2188,97.5156 2145.7656,97.875 Z " fill="#000000"/><text fill="#000000" font-family="sans-serif" font-size="14" lengthAdjust="spacing" textLength="92" x="2157" y="107.7285">StatefulWidget</text><line style="stroke:#181818;stroke-width:0.5;" x1="2129" x2="2251" y1="118" y2="118"/><line style="stroke:#181818;stroke-width:0.5;" x1="2129" x2="2251" y1="126" y2="126"/></g><!--MD5=[9432619776e71801fd4b58594ef73518]
class flutter::src::widgets::framework.dart::State--><g id="elem_flutter::src::widgets::framework.dart::State"><rect fill="#F1F1F1" height="48" id="flutter::src::widgets::framework.dart::State" rx="2.5" ry="2.5" style="stroke:#181818;stroke-width:0.5;" width="65" x="2287.5" y="86"/><ellipse cx="2302.5" cy="102" fill="#ADD1B2" rx="11" ry="11" style="stroke:#181818;stroke-width:1.0;"/><path d="M2305.2656,97.875 Q2305.4219,97.6563 2305.6094,97.5469 Q2305.7969,97.4375 2306.0156,97.4375 Q2306.3906,97.4375 2306.625,97.7031 Q2306.8594,97.9531 2306.8594,98.5625 L2306.8594,100.0156 Q2306.8594,100.625 2306.625,100.8906 Q2306.3906,101.1563 2306.0156,101.1563 Q2305.6719,101.1563 2305.4688,100.9531 Q2305.2656,100.7656 2305.1563,100.25 Q2305.1094,99.8906 2304.9219,99.7031 Q2304.5938,99.3281 2303.9844,99.1094 Q2303.375,98.8906 2302.75,98.8906 Q2301.9844,98.8906 2301.3438,99.2188 Q2300.7188,99.5469 2300.2188,100.2969 Q2299.7344,101.0469 2299.7344,102.0781 L2299.7344,103.1719 Q2299.7344,104.4063 2300.625,105.2344 Q2301.5156,106.0469 2303.1094,106.0469 Q2304.0469,106.0469 2304.7031,105.7969 Q2305.0938,105.6406 2305.5156,105.2031 Q2305.7813,104.9375 2305.9219,104.8594 Q2306.0781,104.7813 2306.2813,104.7813 Q2306.6094,104.7813 2306.8594,105.0469 Q2307.125,105.2969 2307.125,105.6406 Q2307.125,105.9844 2306.7813,106.3906 Q2306.2813,106.9688 2305.4844,107.2969 Q2304.4063,107.75 2303.1094,107.75 Q2301.5938,107.75 2300.3906,107.125 Q2299.4063,106.625 2298.7188,105.5625 Q2298.0313,104.4844 2298.0313,103.2031 L2298.0313,102.0469 Q2298.0313,100.7188 2298.6406,99.5781 Q2299.2656,98.4219 2300.3594,97.8125 Q2301.4531,97.1875 2302.6875,97.1875 Q2303.4219,97.1875 2304.0625,97.3594 Q2304.7188,97.5156 2305.2656,97.875 Z " fill="#000000"/><text fill="#000000" font-family="sans-serif" font-size="14" lengthAdjust="spacing" textLength="33" x="2316.5" y="107.7285">State</text><line style="stroke:#181818;stroke-width:0.5;" x1="2288.5" x2="2351.5" y1="118" y2="118"/><line style="stroke:#181818;stroke-width:0.5;" x1="2288.5" x2="2351.5" y1="126" y2="126"/></g><!--MD5=[659bdd4d84287b811206674a8119b497]
class coders_combo_chatapp::model::user_model.dart::UserModel--><g id="elem_coders_combo_chatapp::model::user_model.dart::UserModel"><rect codeLine="20" fill="#F1F1F1" height="136.0469" id="coders_combo_chatapp::model::user_model.dart::UserModel" rx="2.5" ry="2.5" style="stroke:#181818;stroke-width:0.5;" width="127" x="1674.5" y="466"/><ellipse cx="1702.1" cy="482" fill="#ADD1B2" rx="11" ry="11" style="stroke:#181818;stroke-width:1.0;"/><path d="M1704.8656,477.875 Q1705.0219,477.6563 1705.2094,477.5469 Q1705.3969,477.4375 1705.6156,477.4375 Q1705.9906,477.4375 1706.225,477.7031 Q1706.4594,477.9531 1706.4594,478.5625 L1706.4594,480.0156 Q1706.4594,480.625 1706.225,480.8906 Q1705.9906,481.1563 1705.6156,481.1563 Q1705.2719,481.1563 1705.0688,480.9531 Q1704.8656,480.7656 1704.7563,480.25 Q1704.7094,479.8906 1704.5219,479.7031 Q1704.1938,479.3281 1703.5844,479.1094 Q1702.975,478.8906 1702.35,478.8906 Q1701.5844,478.8906 1700.9438,479.2188 Q1700.3188,479.5469 1699.8188,480.2969 Q1699.3344,481.0469 1699.3344,482.0781 L1699.3344,483.1719 Q1699.3344,484.4063 1700.225,485.2344 Q1701.1156,486.0469 1702.7094,486.0469 Q1703.6469,486.0469 1704.3031,485.7969 Q1704.6938,485.6406 1705.1156,485.2031 Q1705.3813,484.9375 1705.5219,484.8594 Q1705.6781,484.7813 1705.8813,484.7813 Q1706.2094,484.7813 1706.4594,485.0469 Q1706.725,485.2969 1706.725,485.6406 Q1706.725,485.9844 1706.3813,486.3906 Q1705.8813,486.9688 1705.0844,487.2969 Q1704.0063,487.75 1702.7094,487.75 Q1701.1938,487.75 1699.9906,487.125 Q1699.0063,486.625 1698.3188,485.5625 Q1697.6313,484.4844 1697.6313,483.2031 L1697.6313,482.0469 Q1697.6313,480.7188 1698.2406,479.5781 Q1698.8656,478.4219 1699.9594,477.8125 Q1701.0531,477.1875 1702.2875,477.1875 Q1703.0219,477.1875 1703.6625,477.3594 Q1704.3188,477.5156 1704.8656,477.875 Z " fill="#000000"/><text fill="#000000" font-family="sans-serif" font-size="14" lengthAdjust="spacing" textLength="67" x="1718.9" y="487.7285">UserModel</text><line style="stroke:#181818;stroke-width:0.5;" x1="1675.5" x2="1800.5" y1="498" y2="498"/><ellipse cx="1685.5" cy="512.3047" fill="none" rx="3" ry="3" style="stroke:#038048;stroke-width:1.0;"/><text fill="#000000" font-family="sans-serif" font-size="14" lengthAdjust="spacing" textLength="74" x="1694.5" y="516.5332">String email</text><ellipse cx="1685.5" cy="529.9141" fill="none" rx="3" ry="3" style="stroke:#038048;stroke-width:1.0;"/><text fill="#000000" font-family="sans-serif" font-size="14" lengthAdjust="spacing" textLength="76" x="1694.5" y="534.1426">String name</text><ellipse cx="1685.5" cy="547.5234" fill="none" rx="3" ry="3" style="stroke:#038048;stroke-width:1.0;"/><text fill="#000000" font-family="sans-serif" font-size="14" lengthAdjust="spacing" textLength="79" x="1694.5" y="551.752">String Image</text><ellipse cx="1685.5" cy="565.1328" fill="none" rx="3" ry="3" style="stroke:#038048;stroke-width:1.0;"/><text fill="#000000" font-family="sans-serif" font-size="14" lengthAdjust="spacing" textLength="101" x="1694.5" y="569.3613">Timestamp data</text><ellipse cx="1685.5" cy="582.7422" fill="none" rx="3" ry="3" style="stroke:#038048;stroke-width:1.0;"/><text fill="#000000" font-family="sans-serif" font-size="14" lengthAdjust="spacing" textLength="60" x="1694.5" y="586.9707">String uid</text><line style="stroke:#181818;stroke-width:0.5;" x1="1675.5" x2="1800.5" y1="594.0469" y2="594.0469"/></g><!--MD5=[c38894d959b8983c44814d455eb73300]
class cloud_firestore_platform_interface::src::timestamp.dart::Timestamp--><g id="elem_cloud_firestore_platform_interface::src::timestamp.dart::Timestamp"><rect fill="#F1F1F1" height="48" id="cloud_firestore_platform_interface::src::timestamp.dart::Timestamp" rx="2.5" ry="2.5" style="stroke:#181818;stroke-width:0.5;" width="101" x="1687.5" y="678"/><ellipse cx="1702.5" cy="694" fill="#ADD1B2" rx="11" ry="11" style="stroke:#181818;stroke-width:1.0;"/><path d="M1705.2656,689.875 Q1705.4219,689.6563 1705.6094,689.5469 Q1705.7969,689.4375 1706.0156,689.4375 Q1706.3906,689.4375 1706.625,689.7031 Q1706.8594,689.9531 1706.8594,690.5625 L1706.8594,692.0156 Q1706.8594,692.625 1706.625,692.8906 Q1706.3906,693.1563 1706.0156,693.1563 Q1705.6719,693.1563 1705.4688,692.9531 Q1705.2656,692.7656 1705.1563,692.25 Q1705.1094,691.8906 1704.9219,691.7031 Q1704.5938,691.3281 1703.9844,691.1094 Q1703.375,690.8906 1702.75,690.8906 Q1701.9844,690.8906 1701.3438,691.2188 Q1700.7188,691.5469 1700.2188,692.2969 Q1699.7344,693.0469 1699.7344,694.0781 L1699.7344,695.1719 Q1699.7344,696.4063 1700.625,697.2344 Q1701.5156,698.0469 1703.1094,698.0469 Q1704.0469,698.0469 1704.7031,697.7969 Q1705.0938,697.6406 1705.5156,697.2031 Q1705.7813,696.9375 1705.9219,696.8594 Q1706.0781,696.7813 1706.2813,696.7813 Q1706.6094,696.7813 1706.8594,697.0469 Q1707.125,697.2969 1707.125,697.6406 Q1707.125,697.9844 1706.7813,698.3906 Q1706.2813,698.9688 1705.4844,699.2969 Q1704.4063,699.75 1703.1094,699.75 Q1701.5938,699.75 1700.3906,699.125 Q1699.4063,698.625 1698.7188,697.5625 Q1698.0313,696.4844 1698.0313,695.2031 L1698.0313,694.0469 Q1698.0313,692.7188 1698.6406,691.5781 Q1699.2656,690.4219 1700.3594,689.8125 Q1701.4531,689.1875 1702.6875,689.1875 Q1703.4219,689.1875 1704.0625,689.3594 Q1704.7188,689.5156 1705.2656,689.875 Z " fill="#000000"/><text fill="#000000" font-family="sans-serif" font-size="14" lengthAdjust="spacing" textLength="69" x="1716.5" y="699.7285">Timestamp</text><line style="stroke:#181818;stroke-width:0.5;" x1="1688.5" x2="1787.5" y1="710" y2="710"/><line style="stroke:#181818;stroke-width:0.5;" x1="1688.5" x2="1787.5" y1="718" y2="718"/></g><!--MD5=[b31789d51b0579947b79dff468f9bb6e]
class coders_combo_chatapp::screens::auth_screen.dart::AuthScreen--><g id="elem_coders_combo_chatapp::screens::auth_screen.dart::AuthScreen"><rect codeLine="30" fill="#F1F1F1" height="65.6094" id="coders_combo_chatapp::screens::auth_screen.dart::AuthScreen" rx="2.5" ry="2.5" style="stroke:#181818;stroke-width:0.5;" width="228" x="3552" y="289"/><ellipse cx="3624.75" cy="305" fill="#ADD1B2" rx="11" ry="11" style="stroke:#181818;stroke-width:1.0;"/><path d="M3627.5156,300.875 Q3627.6719,300.6563 3627.8594,300.5469 Q3628.0469,300.4375 3628.2656,300.4375 Q3628.6406,300.4375 3628.875,300.7031 Q3629.1094,300.9531 3629.1094,301.5625 L3629.1094,303.0156 Q3629.1094,303.625 3628.875,303.8906 Q3628.6406,304.1563 3628.2656,304.1563 Q3627.9219,304.1563 3627.7188,303.9531 Q3627.5156,303.7656 3627.4063,303.25 Q3627.3594,302.8906 3627.1719,302.7031 Q3626.8438,302.3281 3626.2344,302.1094 Q3625.625,301.8906 3625,301.8906 Q3624.2344,301.8906 3623.5938,302.2188 Q3622.9688,302.5469 3622.4688,303.2969 Q3621.9844,304.0469 3621.9844,305.0781 L3621.9844,306.1719 Q3621.9844,307.4063 3622.875,308.2344 Q3623.7656,309.0469 3625.3594,309.0469 Q3626.2969,309.0469 3626.9531,308.7969 Q3627.3438,308.6406 3627.7656,308.2031 Q3628.0313,307.9375 3628.1719,307.8594 Q3628.3281,307.7813 3628.5313,307.7813 Q3628.8594,307.7813 3629.1094,308.0469 Q3629.375,308.2969 3629.375,308.6406 Q3629.375,308.9844 3629.0313,309.3906 Q3628.5313,309.9688 3627.7344,310.2969 Q3626.6563,310.75 3625.3594,310.75 Q3623.8438,310.75 3622.6406,310.125 Q3621.6563,309.625 3620.9688,308.5625 Q3620.2813,307.4844 3620.2813,306.2031 L3620.2813,305.0469 Q3620.2813,303.7188 3620.8906,302.5781 Q3621.5156,301.4219 3622.6094,300.8125 Q3623.7031,300.1875 3624.9375,300.1875 Q3625.6719,300.1875 3626.3125,300.3594 Q3626.9688,300.5156 3627.5156,300.875 Z " fill="#000000"/><text fill="#000000" font-family="sans-serif" font-size="14" lengthAdjust="spacing" textLength="74" x="3645.25" y="310.7285">AuthScreen</text><line style="stroke:#181818;stroke-width:0.5;" x1="3553" x2="3779" y1="321" y2="321"/><line style="stroke:#181818;stroke-width:0.5;" x1="3553" x2="3779" y1="329" y2="329"/><ellipse cx="3563" cy="343.3047" fill="#84BE84" rx="3" ry="3" style="stroke:#038048;stroke-width:1.0;"/><text fill="#000000" font-family="sans-serif" font-size="14" lengthAdjust="spacing" textLength="202" x="3572" y="347.5332">_AuthScreenState createState()</text></g><!--MD5=[17a0281d343d0537cb717eb6c547e001]
class coders_combo_chatapp::screens::auth_screen.dart::_AuthScreenState--><g id="elem_coders_combo_chatapp::screens::auth_screen.dart::_AuthScreenState"><rect codeLine="36" fill="#F1F1F1" height="118.4375" id="coders_combo_chatapp::screens::auth_screen.dart::_AuthScreenState" rx="2.5" ry="2.5" style="stroke:#181818;stroke-width:0.5;" width="242" x="3815" y="263"/><ellipse cx="3874.25" cy="279" fill="#ADD1B2" rx="11" ry="11" style="stroke:#181818;stroke-width:1.0;"/><path d="M3877.0156,274.875 Q3877.1719,274.6563 3877.3594,274.5469 Q3877.5469,274.4375 3877.7656,274.4375 Q3878.1406,274.4375 3878.375,274.7031 Q3878.6094,274.9531 3878.6094,275.5625 L3878.6094,277.0156 Q3878.6094,277.625 3878.375,277.8906 Q3878.1406,278.1563 3877.7656,278.1563 Q3877.4219,278.1563 3877.2188,277.9531 Q3877.0156,277.7656 3876.9063,277.25 Q3876.8594,276.8906 3876.6719,276.7031 Q3876.3438,276.3281 3875.7344,276.1094 Q3875.125,275.8906 3874.5,275.8906 Q3873.7344,275.8906 3873.0938,276.2188 Q3872.4688,276.5469 3871.9688,277.2969 Q3871.4844,278.0469 3871.4844,279.0781 L3871.4844,280.1719 Q3871.4844,281.4063 3872.375,282.2344 Q3873.2656,283.0469 3874.8594,283.0469 Q3875.7969,283.0469 3876.4531,282.7969 Q3876.8438,282.6406 3877.2656,282.2031 Q3877.5313,281.9375 3877.6719,281.8594 Q3877.8281,281.7813 3878.0313,281.7813 Q3878.3594,281.7813 3878.6094,282.0469 Q3878.875,282.2969 3878.875,282.6406 Q3878.875,282.9844 3878.5313,283.3906 Q3878.0313,283.9688 3877.2344,284.2969 Q3876.1563,284.75 3874.8594,284.75 Q3873.3438,284.75 3872.1406,284.125 Q3871.1563,283.625 3870.4688,282.5625 Q3869.7813,281.4844 3869.7813,280.2031 L3869.7813,279.0469 Q3869.7813,277.7188 3870.3906,276.5781 Q3871.0156,275.4219 3872.1094,274.8125 Q3873.2031,274.1875 3874.4375,274.1875 Q3875.1719,274.1875 3875.8125,274.3594 Q3876.4688,274.5156 3877.0156,274.875 Z " fill="#000000"/><text fill="#000000" font-family="sans-serif" font-size="14" lengthAdjust="spacing" textLength="115" x="3894.75" y="284.7285">_AuthScreenState</text><line style="stroke:#181818;stroke-width:0.5;" x1="3816" x2="4056" y1="295" y2="295"/><ellipse cx="3826" cy="309.3047" fill="none" rx="3" ry="3" style="stroke:#038048;stroke-width:1.0;"/><text fill="#000000" font-family="sans-serif" font-size="14" lengthAdjust="spacing" textLength="171" x="3835" y="313.5332">GoogleSignIn googleSignIn</text><ellipse cx="3826" cy="326.9141" fill="none" rx="3" ry="3" style="stroke:#038048;stroke-width:1.0;"/><text fill="#000000" font-family="sans-serif" font-size="14" lengthAdjust="spacing" textLength="169" x="3835" y="331.1426">FirebaseFirestore firestore</text><line style="stroke:#181818;stroke-width:0.5;" x1="3816" x2="4056" y1="338.2188" y2="338.2188"/><ellipse cx="3826" cy="352.5234" fill="#84BE84" rx="3" ry="3" style="stroke:#038048;stroke-width:1.0;"/><text fill="#000000" font-family="sans-serif" font-size="14" lengthAdjust="spacing" textLength="216" x="3835" y="356.752">Future&lt;dynamic&gt; signInFunction()</text><ellipse cx="3826" cy="370.1328" fill="#84BE84" rx="3" ry="3" style="stroke:#038048;stroke-width:1.0;"/><text fill="#000000" font-family="sans-serif" font-size="14" lengthAdjust="spacing" textLength="88" x="3835" y="374.3613">Widget build()</text></g><!--MD5=[78d40f6d16a9eebd2a50ebd5d608a17a]
class google_sign_in::google_sign_in.dart::GoogleSignIn--><g id="elem_google_sign_in::google_sign_in.dart::GoogleSignIn"><rect fill="#F1F1F1" height="48" id="google_sign_in::google_sign_in.dart::GoogleSignIn" rx="2.5" ry="2.5" style="stroke:#181818;stroke-width:0.5;" width="117" x="3783.5" y="510"/><ellipse cx="3798.5" cy="526" fill="#ADD1B2" rx="11" ry="11" style="stroke:#181818;stroke-width:1.0;"/><path d="M3801.2656,521.875 Q3801.4219,521.6563 3801.6094,521.5469 Q3801.7969,521.4375 3802.0156,521.4375 Q3802.3906,521.4375 3802.625,521.7031 Q3802.8594,521.9531 3802.8594,522.5625 L3802.8594,524.0156 Q3802.8594,524.625 3802.625,524.8906 Q3802.3906,525.1563 3802.0156,525.1563 Q3801.6719,525.1563 3801.4688,524.9531 Q3801.2656,524.7656 3801.1563,524.25 Q3801.1094,523.8906 3800.9219,523.7031 Q3800.5938,523.3281 3799.9844,523.1094 Q3799.375,522.8906 3798.75,522.8906 Q3797.9844,522.8906 3797.3438,523.2188 Q3796.7188,523.5469 3796.2188,524.2969 Q3795.7344,525.0469 3795.7344,526.0781 L3795.7344,527.1719 Q3795.7344,528.4063 3796.625,529.2344 Q3797.5156,530.0469 3799.1094,530.0469 Q3800.0469,530.0469 3800.7031,529.7969 Q3801.0938,529.6406 3801.5156,529.2031 Q3801.7813,528.9375 3801.9219,528.8594 Q3802.0781,528.7813 3802.2813,528.7813 Q3802.6094,528.7813 3802.8594,529.0469 Q3803.125,529.2969 3803.125,529.6406 Q3803.125,529.9844 3802.7813,530.3906 Q3802.2813,530.9688 3801.4844,531.2969 Q3800.4063,531.75 3799.1094,531.75 Q3797.5938,531.75 3796.3906,531.125 Q3795.4063,530.625 3794.7188,529.5625 Q3794.0313,528.4844 3794.0313,527.2031 L3794.0313,526.0469 Q3794.0313,524.7188 3794.6406,523.5781 Q3795.2656,522.4219 3796.3594,521.8125 Q3797.4531,521.1875 3798.6875,521.1875 Q3799.4219,521.1875 3800.0625,521.3594 Q3800.7188,521.5156 3801.2656,521.875 Z " fill="#000000"/><text fill="#000000" font-family="sans-serif" font-size="14" lengthAdjust="spacing" textLength="85" x="3812.5" y="531.7285">GoogleSignIn</text><line style="stroke:#181818;stroke-width:0.5;" x1="3784.5" x2="3899.5" y1="542" y2="542"/><line style="stroke:#181818;stroke-width:0.5;" x1="3784.5" x2="3899.5" y1="550" y2="550"/></g><!--MD5=[0bebbbf8689f9e95f117a45e8e34a29f]
class cloud_firestore::cloud_firestore.dart::FirebaseFirestore--><g id="elem_cloud_firestore::cloud_firestore.dart::FirebaseFirestore"><rect fill="#F1F1F1" height="48" id="cloud_firestore::cloud_firestore.dart::FirebaseFirestore" rx="2.5" ry="2.5" style="stroke:#181818;stroke-width:0.5;" width="145" x="3957.5" y="510"/><ellipse cx="3972.5" cy="526" fill="#ADD1B2" rx="11" ry="11" style="stroke:#181818;stroke-width:1.0;"/><path d="M3975.2656,521.875 Q3975.4219,521.6563 3975.6094,521.5469 Q3975.7969,521.4375 3976.0156,521.4375 Q3976.3906,521.4375 3976.625,521.7031 Q3976.8594,521.9531 3976.8594,522.5625 L3976.8594,524.0156 Q3976.8594,524.625 3976.625,524.8906 Q3976.3906,525.1563 3976.0156,525.1563 Q3975.6719,525.1563 3975.4688,524.9531 Q3975.2656,524.7656 3975.1563,524.25 Q3975.1094,523.8906 3974.9219,523.7031 Q3974.5938,523.3281 3973.9844,523.1094 Q3973.375,522.8906 3972.75,522.8906 Q3971.9844,522.8906 3971.3438,523.2188 Q3970.7188,523.5469 3970.2188,524.2969 Q3969.7344,525.0469 3969.7344,526.0781 L3969.7344,527.1719 Q3969.7344,528.4063 3970.625,529.2344 Q3971.5156,530.0469 3973.1094,530.0469 Q3974.0469,530.0469 3974.7031,529.7969 Q3975.0938,529.6406 3975.5156,529.2031 Q3975.7813,528.9375 3975.9219,528.8594 Q3976.0781,528.7813 3976.2813,528.7813 Q3976.6094,528.7813 3976.8594,529.0469 Q3977.125,529.2969 3977.125,529.6406 Q3977.125,529.9844 3976.7813,530.3906 Q3976.2813,530.9688 3975.4844,531.2969 Q3974.4063,531.75 3973.1094,531.75 Q3971.5938,531.75 3970.3906,531.125 Q3969.4063,530.625 3968.7188,529.5625 Q3968.0313,528.4844 3968.0313,527.2031 L3968.0313,526.0469 Q3968.0313,524.7188 3968.6406,523.5781 Q3969.2656,522.4219 3970.3594,521.8125 Q3971.4531,521.1875 3972.6875,521.1875 Q3973.4219,521.1875 3974.0625,521.3594 Q3974.7188,521.5156 3975.2656,521.875 Z " fill="#000000"/><text fill="#000000" font-family="sans-serif" font-size="14" lengthAdjust="spacing" textLength="113" x="3986.5" y="531.7285">FirebaseFirestore</text><line style="stroke:#181818;stroke-width:0.5;" x1="3958.5" x2="4101.5" y1="542" y2="542"/><line style="stroke:#181818;stroke-width:0.5;" x1="3958.5" x2="4101.5" y1="550" y2="550"/></g><!--MD5=[12716f540093f20ac6ba5abde48faaf4]
class coders_combo_chatapp::screens::chat_screen.dart::ChatScreen--><g id="elem_coders_combo_chatapp::screens::chat_screen.dart::ChatScreen"><rect codeLine="47" fill="#F1F1F1" height="136.0469" id="coders_combo_chatapp::screens::chat_screen.dart::ChatScreen" rx="2.5" ry="2.5" style="stroke:#181818;stroke-width:0.5;" width="171" x="1652.5" y="254"/><ellipse cx="1696.3" cy="270" fill="#ADD1B2" rx="11" ry="11" style="stroke:#181818;stroke-width:1.0;"/><path d="M1699.0656,265.875 Q1699.2219,265.6563 1699.4094,265.5469 Q1699.5969,265.4375 1699.8156,265.4375 Q1700.1906,265.4375 1700.425,265.7031 Q1700.6594,265.9531 1700.6594,266.5625 L1700.6594,268.0156 Q1700.6594,268.625 1700.425,268.8906 Q1700.1906,269.1563 1699.8156,269.1563 Q1699.4719,269.1563 1699.2688,268.9531 Q1699.0656,268.7656 1698.9563,268.25 Q1698.9094,267.8906 1698.7219,267.7031 Q1698.3938,267.3281 1697.7844,267.1094 Q1697.175,266.8906 1696.55,266.8906 Q1695.7844,266.8906 1695.1438,267.2188 Q1694.5188,267.5469 1694.0188,268.2969 Q1693.5344,269.0469 1693.5344,270.0781 L1693.5344,271.1719 Q1693.5344,272.4063 1694.425,273.2344 Q1695.3156,274.0469 1696.9094,274.0469 Q1697.8469,274.0469 1698.5031,273.7969 Q1698.8938,273.6406 1699.3156,273.2031 Q1699.5813,272.9375 1699.7219,272.8594 Q1699.8781,272.7813 1700.0813,272.7813 Q1700.4094,272.7813 1700.6594,273.0469 Q1700.925,273.2969 1700.925,273.6406 Q1700.925,273.9844 1700.5813,274.3906 Q1700.0813,274.9688 1699.2844,275.2969 Q1698.2063,275.75 1696.9094,275.75 Q1695.3938,275.75 1694.1906,275.125 Q1693.2063,274.625 1692.5188,273.5625 Q1691.8313,272.4844 1691.8313,271.2031 L1691.8313,270.0469 Q1691.8313,268.7188 1692.4406,267.5781 Q1693.0656,266.4219 1694.1594,265.8125 Q1695.2531,265.1875 1696.4875,265.1875 Q1697.2219,265.1875 1697.8625,265.3594 Q1698.5188,265.5156 1699.0656,265.875 Z " fill="#000000"/><text fill="#000000" font-family="sans-serif" font-size="14" lengthAdjust="spacing" textLength="75" x="1716.7" y="275.7285">ChatScreen</text><line style="stroke:#181818;stroke-width:0.5;" x1="1653.5" x2="1822.5" y1="286" y2="286"/><ellipse cx="1663.5" cy="300.3047" fill="none" rx="3" ry="3" style="stroke:#038048;stroke-width:1.0;"/><text fill="#000000" font-family="sans-serif" font-size="14" lengthAdjust="spacing" textLength="145" x="1672.5" y="304.5332">UserModel currentUser</text><ellipse cx="1663.5" cy="317.9141" fill="none" rx="3" ry="3" style="stroke:#038048;stroke-width:1.0;"/><text fill="#000000" font-family="sans-serif" font-size="14" lengthAdjust="spacing" textLength="88" x="1672.5" y="322.1426">String friendId</text><ellipse cx="1663.5" cy="335.5234" fill="none" rx="3" ry="3" style="stroke:#038048;stroke-width:1.0;"/><text fill="#000000" font-family="sans-serif" font-size="14" lengthAdjust="spacing" textLength="113" x="1672.5" y="339.752">String friendName</text><ellipse cx="1663.5" cy="353.1328" fill="none" rx="3" ry="3" style="stroke:#038048;stroke-width:1.0;"/><text fill="#000000" font-family="sans-serif" font-size="14" lengthAdjust="spacing" textLength="115" x="1672.5" y="357.3613">String friendImage</text><line style="stroke:#181818;stroke-width:0.5;" x1="1653.5" x2="1822.5" y1="364.4375" y2="364.4375"/><ellipse cx="1663.5" cy="378.7422" fill="#84BE84" rx="3" ry="3" style="stroke:#038048;stroke-width:1.0;"/><text fill="#000000" font-family="sans-serif" font-size="14" lengthAdjust="spacing" textLength="88" x="1672.5" y="382.9707">Widget build()</text></g><!--MD5=[f4f3b6a21699ae0632c70cce7a4c5f46]
class coders_combo_chatapp::screens::home_screen.dart::HomeScreen--><g id="elem_coders_combo_chatapp::screens::home_screen.dart::HomeScreen"><rect codeLine="58" fill="#F1F1F1" height="83.2188" id="coders_combo_chatapp::screens::home_screen.dart::HomeScreen" rx="2.5" ry="2.5" style="stroke:#181818;stroke-width:0.5;" width="243" x="898.5" y="280.5"/><ellipse cx="975.25" cy="296.5" fill="#ADD1B2" rx="11" ry="11" style="stroke:#181818;stroke-width:1.0;"/><path d="M978.0156,292.375 Q978.1719,292.1563 978.3594,292.0469 Q978.5469,291.9375 978.7656,291.9375 Q979.1406,291.9375 979.375,292.2031 Q979.6094,292.4531 979.6094,293.0625 L979.6094,294.5156 Q979.6094,295.125 979.375,295.3906 Q979.1406,295.6563 978.7656,295.6563 Q978.4219,295.6563 978.2188,295.4531 Q978.0156,295.2656 977.9063,294.75 Q977.8594,294.3906 977.6719,294.2031 Q977.3438,293.8281 976.7344,293.6094 Q976.125,293.3906 975.5,293.3906 Q974.7344,293.3906 974.0938,293.7188 Q973.4688,294.0469 972.9688,294.7969 Q972.4844,295.5469 972.4844,296.5781 L972.4844,297.6719 Q972.4844,298.9063 973.375,299.7344 Q974.2656,300.5469 975.8594,300.5469 Q976.7969,300.5469 977.4531,300.2969 Q977.8438,300.1406 978.2656,299.7031 Q978.5313,299.4375 978.6719,299.3594 Q978.8281,299.2813 979.0313,299.2813 Q979.3594,299.2813 979.6094,299.5469 Q979.875,299.7969 979.875,300.1406 Q979.875,300.4844 979.5313,300.8906 Q979.0313,301.4688 978.2344,301.7969 Q977.1563,302.25 975.8594,302.25 Q974.3438,302.25 973.1406,301.625 Q972.1563,301.125 971.4688,300.0625 Q970.7813,298.9844 970.7813,297.7031 L970.7813,296.5469 Q970.7813,295.2188 971.3906,294.0781 Q972.0156,292.9219 973.1094,292.3125 Q974.2031,291.6875 975.4375,291.6875 Q976.1719,291.6875 976.8125,291.8594 Q977.4688,292.0156 978.0156,292.375 Z " fill="#000000"/><text fill="#000000" font-family="sans-serif" font-size="14" lengthAdjust="spacing" textLength="81" x="995.75" y="302.2285">HomeScreen</text><line style="stroke:#181818;stroke-width:0.5;" x1="899.5" x2="1140.5" y1="312.5" y2="312.5"/><ellipse cx="909.5" cy="326.8047" fill="none" rx="3" ry="3" style="stroke:#038048;stroke-width:1.0;"/><text fill="#000000" font-family="sans-serif" font-size="14" lengthAdjust="spacing" textLength="99" x="918.5" y="331.0332">UserModel user</text><line style="stroke:#181818;stroke-width:0.5;" x1="899.5" x2="1140.5" y1="338.1094" y2="338.1094"/><ellipse cx="909.5" cy="352.4141" fill="#84BE84" rx="3" ry="3" style="stroke:#038048;stroke-width:1.0;"/><text fill="#000000" font-family="sans-serif" font-size="14" lengthAdjust="spacing" textLength="217" x="918.5" y="356.6426">State&lt;HomeScreen&gt; createState()</text></g><!--MD5=[52106fedfb514711c7c3db8bb8240299]
class coders_combo_chatapp::screens::home_screen.dart::_HomeScreenState--><g id="elem_coders_combo_chatapp::screens::home_screen.dart::_HomeScreenState"><rect codeLine="66" fill="#F1F1F1" height="118.4375" id="coders_combo_chatapp::screens::home_screen.dart::_HomeScreenState" rx="2.5" ry="2.5" style="stroke:#181818;stroke-width:0.5;" width="248" x="615" y="263"/><ellipse cx="673.75" cy="279" fill="#ADD1B2" rx="11" ry="11" style="stroke:#181818;stroke-width:1.0;"/><path d="M676.5156,274.875 Q676.6719,274.6563 676.8594,274.5469 Q677.0469,274.4375 677.2656,274.4375 Q677.6406,274.4375 677.875,274.7031 Q678.1094,274.9531 678.1094,275.5625 L678.1094,277.0156 Q678.1094,277.625 677.875,277.8906 Q677.6406,278.1563 677.2656,278.1563 Q676.9219,278.1563 676.7188,277.9531 Q676.5156,277.7656 676.4063,277.25 Q676.3594,276.8906 676.1719,276.7031 Q675.8438,276.3281 675.2344,276.1094 Q674.625,275.8906 674,275.8906 Q673.2344,275.8906 672.5938,276.2188 Q671.9688,276.5469 671.4688,277.2969 Q670.9844,278.0469 670.9844,279.0781 L670.9844,280.1719 Q670.9844,281.4063 671.875,282.2344 Q672.7656,283.0469 674.3594,283.0469 Q675.2969,283.0469 675.9531,282.7969 Q676.3438,282.6406 676.7656,282.2031 Q677.0313,281.9375 677.1719,281.8594 Q677.3281,281.7813 677.5313,281.7813 Q677.8594,281.7813 678.1094,282.0469 Q678.375,282.2969 678.375,282.6406 Q678.375,282.9844 678.0313,283.3906 Q677.5313,283.9688 676.7344,284.2969 Q675.6563,284.75 674.3594,284.75 Q672.8438,284.75 671.6406,284.125 Q670.6563,283.625 669.9688,282.5625 Q669.2813,281.4844 669.2813,280.2031 L669.2813,279.0469 Q669.2813,277.7188 669.8906,276.5781 Q670.5156,275.4219 671.6094,274.8125 Q672.7031,274.1875 673.9375,274.1875 Q674.6719,274.1875 675.3125,274.3594 Q675.9688,274.5156 676.5156,274.875 Z " fill="#000000"/><text fill="#000000" font-family="sans-serif" font-size="14" lengthAdjust="spacing" textLength="122" x="694.25" y="284.7285">_HomeScreenState</text><line style="stroke:#181818;stroke-width:0.5;" x1="616" x2="862" y1="295" y2="295"/><line style="stroke:#181818;stroke-width:0.5;" x1="616" x2="862" y1="303" y2="303"/><ellipse cx="626" cy="317.3047" fill="#84BE84" rx="3" ry="3" style="stroke:#038048;stroke-width:1.0;"/><text fill="#000000" font-family="sans-serif" font-size="14" lengthAdjust="spacing" textLength="91" x="635" y="321.5332">void initState()</text><ellipse cx="626" cy="334.9141" fill="#84BE84" rx="3" ry="3" style="stroke:#038048;stroke-width:1.0;"/><text fill="#000000" font-family="sans-serif" font-size="14" lengthAdjust="spacing" textLength="99" x="635" y="339.1426">void setStatus()</text><ellipse cx="626" cy="352.5234" fill="#84BE84" rx="3" ry="3" style="stroke:#038048;stroke-width:1.0;"/><text fill="#000000" font-family="sans-serif" font-size="14" lengthAdjust="spacing" textLength="222" x="635" y="356.752">void didChangeAppLifecycleState()</text><ellipse cx="626" cy="370.1328" fill="#84BE84" rx="3" ry="3" style="stroke:#038048;stroke-width:1.0;"/><text fill="#000000" font-family="sans-serif" font-size="14" lengthAdjust="spacing" textLength="88" x="635" y="374.3613">Widget build()</text></g><!--MD5=[e73d83c72854e47a07afe6ec6f348a21]
class flutter::src::widgets::binding.dart::WidgetsBindingObserver--><g id="elem_flutter::src::widgets::binding.dart::WidgetsBindingObserver"><rect fill="#F1F1F1" height="48" id="flutter::src::widgets::binding.dart::WidgetsBindingObserver" rx="2.5" ry="2.5" style="stroke:#181818;stroke-width:0.5;" width="189" x="644.5" y="86"/><ellipse cx="659.5" cy="102" fill="#ADD1B2" rx="11" ry="11" style="stroke:#181818;stroke-width:1.0;"/><path d="M662.2656,97.875 Q662.4219,97.6563 662.6094,97.5469 Q662.7969,97.4375 663.0156,97.4375 Q663.3906,97.4375 663.625,97.7031 Q663.8594,97.9531 663.8594,98.5625 L663.8594,100.0156 Q663.8594,100.625 663.625,100.8906 Q663.3906,101.1563 663.0156,101.1563 Q662.6719,101.1563 662.4688,100.9531 Q662.2656,100.7656 662.1563,100.25 Q662.1094,99.8906 661.9219,99.7031 Q661.5938,99.3281 660.9844,99.1094 Q660.375,98.8906 659.75,98.8906 Q658.9844,98.8906 658.3438,99.2188 Q657.7188,99.5469 657.2188,100.2969 Q656.7344,101.0469 656.7344,102.0781 L656.7344,103.1719 Q656.7344,104.4063 657.625,105.2344 Q658.5156,106.0469 660.1094,106.0469 Q661.0469,106.0469 661.7031,105.7969 Q662.0938,105.6406 662.5156,105.2031 Q662.7813,104.9375 662.9219,104.8594 Q663.0781,104.7813 663.2813,104.7813 Q663.6094,104.7813 663.8594,105.0469 Q664.125,105.2969 664.125,105.6406 Q664.125,105.9844 663.7813,106.3906 Q663.2813,106.9688 662.4844,107.2969 Q661.4063,107.75 660.1094,107.75 Q658.5938,107.75 657.3906,107.125 Q656.4063,106.625 655.7188,105.5625 Q655.0313,104.4844 655.0313,103.2031 L655.0313,102.0469 Q655.0313,100.7188 655.6406,99.5781 Q656.2656,98.4219 657.3594,97.8125 Q658.4531,97.1875 659.6875,97.1875 Q660.4219,97.1875 661.0625,97.3594 Q661.7188,97.5156 662.2656,97.875 Z " fill="#000000"/><text fill="#000000" font-family="sans-serif" font-size="14" lengthAdjust="spacing" textLength="157" x="673.5" y="107.7285">WidgetsBindingObserver</text><line style="stroke:#181818;stroke-width:0.5;" x1="645.5" x2="832.5" y1="118" y2="118"/><line style="stroke:#181818;stroke-width:0.5;" x1="645.5" x2="832.5" y1="126" y2="126"/></g><!--MD5=[732226cb6ed66a3931b12c1637cbf119]
class coders_combo_chatapp::screens::search_screen.dart::SearchScreen--><g id="elem_coders_combo_chatapp::screens::search_screen.dart::SearchScreen"><rect codeLine="76" fill="#F1F1F1" height="83.2188" id="coders_combo_chatapp::screens::search_screen.dart::SearchScreen" rx="2.5" ry="2.5" style="stroke:#181818;stroke-width:0.5;" width="252" x="1880" y="280.5"/><ellipse cx="1956.75" cy="296.5" fill="#ADD1B2" rx="11" ry="11" style="stroke:#181818;stroke-width:1.0;"/><path d="M1959.5156,292.375 Q1959.6719,292.1563 1959.8594,292.0469 Q1960.0469,291.9375 1960.2656,291.9375 Q1960.6406,291.9375 1960.875,292.2031 Q1961.1094,292.4531 1961.1094,293.0625 L1961.1094,294.5156 Q1961.1094,295.125 1960.875,295.3906 Q1960.6406,295.6563 1960.2656,295.6563 Q1959.9219,295.6563 1959.7188,295.4531 Q1959.5156,295.2656 1959.4063,294.75 Q1959.3594,294.3906 1959.1719,294.2031 Q1958.8438,293.8281 1958.2344,293.6094 Q1957.625,293.3906 1957,293.3906 Q1956.2344,293.3906 1955.5938,293.7188 Q1954.9688,294.0469 1954.4688,294.7969 Q1953.9844,295.5469 1953.9844,296.5781 L1953.9844,297.6719 Q1953.9844,298.9063 1954.875,299.7344 Q1955.7656,300.5469 1957.3594,300.5469 Q1958.2969,300.5469 1958.9531,300.2969 Q1959.3438,300.1406 1959.7656,299.7031 Q1960.0313,299.4375 1960.1719,299.3594 Q1960.3281,299.2813 1960.5313,299.2813 Q1960.8594,299.2813 1961.1094,299.5469 Q1961.375,299.7969 1961.375,300.1406 Q1961.375,300.4844 1961.0313,300.8906 Q1960.5313,301.4688 1959.7344,301.7969 Q1958.6563,302.25 1957.3594,302.25 Q1955.8438,302.25 1954.6406,301.625 Q1953.6563,301.125 1952.9688,300.0625 Q1952.2813,298.9844 1952.2813,297.7031 L1952.2813,296.5469 Q1952.2813,295.2188 1952.8906,294.0781 Q1953.5156,292.9219 1954.6094,292.3125 Q1955.7031,291.6875 1956.9375,291.6875 Q1957.6719,291.6875 1958.3125,291.8594 Q1958.9688,292.0156 1959.5156,292.375 Z " fill="#000000"/><text fill="#000000" font-family="sans-serif" font-size="14" lengthAdjust="spacing" textLength="90" x="1977.25" y="302.2285">SearchScreen</text><line style="stroke:#181818;stroke-width:0.5;" x1="1881" x2="2131" y1="312.5" y2="312.5"/><ellipse cx="1891" cy="326.8047" fill="none" rx="3" ry="3" style="stroke:#038048;stroke-width:1.0;"/><text fill="#000000" font-family="sans-serif" font-size="14" lengthAdjust="spacing" textLength="99" x="1900" y="331.0332">UserModel user</text><line style="stroke:#181818;stroke-width:0.5;" x1="1881" x2="2131" y1="338.1094" y2="338.1094"/><ellipse cx="1891" cy="352.4141" fill="#84BE84" rx="3" ry="3" style="stroke:#038048;stroke-width:1.0;"/><text fill="#000000" font-family="sans-serif" font-size="14" lengthAdjust="spacing" textLength="226" x="1900" y="356.6426">State&lt;SearchScreen&gt; createState()</text></g><!--MD5=[dc8f94fd3e955b3a997d396b5567acae]
class coders_combo_chatapp::screens::search_screen.dart::_SearchScreenState--><g id="elem_coders_combo_chatapp::screens::search_screen.dart::_SearchScreenState"><rect codeLine="84" fill="#F1F1F1" height="136.0469" id="coders_combo_chatapp::screens::search_screen.dart::_SearchScreenState" rx="2.5" ry="2.5" style="stroke:#181818;stroke-width:0.5;" width="306" x="2167" y="254"/><ellipse cx="2250.25" cy="270" fill="#ADD1B2" rx="11" ry="11" style="stroke:#181818;stroke-width:1.0;"/><path d="M2253.0156,265.875 Q2253.1719,265.6563 2253.3594,265.5469 Q2253.5469,265.4375 2253.7656,265.4375 Q2254.1406,265.4375 2254.375,265.7031 Q2254.6094,265.9531 2254.6094,266.5625 L2254.6094,268.0156 Q2254.6094,268.625 2254.375,268.8906 Q2254.1406,269.1563 2253.7656,269.1563 Q2253.4219,269.1563 2253.2188,268.9531 Q2253.0156,268.7656 2252.9063,268.25 Q2252.8594,267.8906 2252.6719,267.7031 Q2252.3438,267.3281 2251.7344,267.1094 Q2251.125,266.8906 2250.5,266.8906 Q2249.7344,266.8906 2249.0938,267.2188 Q2248.4688,267.5469 2247.9688,268.2969 Q2247.4844,269.0469 2247.4844,270.0781 L2247.4844,271.1719 Q2247.4844,272.4063 2248.375,273.2344 Q2249.2656,274.0469 2250.8594,274.0469 Q2251.7969,274.0469 2252.4531,273.7969 Q2252.8438,273.6406 2253.2656,273.2031 Q2253.5313,272.9375 2253.6719,272.8594 Q2253.8281,272.7813 2254.0313,272.7813 Q2254.3594,272.7813 2254.6094,273.0469 Q2254.875,273.2969 2254.875,273.6406 Q2254.875,273.9844 2254.5313,274.3906 Q2254.0313,274.9688 2253.2344,275.2969 Q2252.1563,275.75 2250.8594,275.75 Q2249.3438,275.75 2248.1406,275.125 Q2247.1563,274.625 2246.4688,273.5625 Q2245.7813,272.4844 2245.7813,271.2031 L2245.7813,270.0469 Q2245.7813,268.7188 2246.3906,267.5781 Q2247.0156,266.4219 2248.1094,265.8125 Q2249.2031,265.1875 2250.4375,265.1875 Q2251.1719,265.1875 2251.8125,265.3594 Q2252.4688,265.5156 2253.0156,265.875 Z " fill="#000000"/><text fill="#000000" font-family="sans-serif" font-size="14" lengthAdjust="spacing" textLength="131" x="2270.75" y="275.7285">_SearchScreenState</text><line style="stroke:#181818;stroke-width:0.5;" x1="2168" x2="2472" y1="286" y2="286"/><ellipse cx="2178" cy="300.3047" fill="none" rx="3" ry="3" style="stroke:#038048;stroke-width:1.0;"/><text fill="#000000" font-family="sans-serif" font-size="14" lengthAdjust="spacing" textLength="241" x="2187" y="304.5332">TextEditingController searchController</text><ellipse cx="2178" cy="317.9141" fill="none" rx="3" ry="3" style="stroke:#038048;stroke-width:1.0;"/><text fill="#000000" font-family="sans-serif" font-size="14" lengthAdjust="spacing" textLength="280" x="2187" y="322.1426">List&lt;Map&lt;dynamic, dynamic&gt;&gt; searchResult</text><ellipse cx="2178" cy="335.5234" fill="none" rx="3" ry="3" style="stroke:#038048;stroke-width:1.0;"/><text fill="#000000" font-family="sans-serif" font-size="14" lengthAdjust="spacing" textLength="87" x="2187" y="339.752">bool isloading</text><line style="stroke:#181818;stroke-width:0.5;" x1="2168" x2="2472" y1="346.8281" y2="346.8281"/><ellipse cx="2178" cy="361.1328" fill="#84BE84" rx="3" ry="3" style="stroke:#038048;stroke-width:1.0;"/><text fill="#000000" font-family="sans-serif" font-size="14" lengthAdjust="spacing" textLength="101" x="2187" y="365.3613">void onSearch()</text><ellipse cx="2178" cy="378.7422" fill="#84BE84" rx="3" ry="3" style="stroke:#038048;stroke-width:1.0;"/><text fill="#000000" font-family="sans-serif" font-size="14" lengthAdjust="spacing" textLength="88" x="2187" y="382.9707">Widget build()</text></g><!--MD5=[40b395e1d1237e82679a917749c88d40]
class flutter::src::widgets::editable_text.dart::TextEditingController--><g id="elem_flutter::src::widgets::editable_text.dart::TextEditingController"><rect fill="#F1F1F1" height="48" id="flutter::src::widgets::editable_text.dart::TextEditingController" rx="2.5" ry="2.5" style="stroke:#181818;stroke-width:0.5;" width="164" x="2556" y="510"/><ellipse cx="2571" cy="526" fill="#ADD1B2" rx="11" ry="11" style="stroke:#181818;stroke-width:1.0;"/><path d="M2573.7656,521.875 Q2573.9219,521.6563 2574.1094,521.5469 Q2574.2969,521.4375 2574.5156,521.4375 Q2574.8906,521.4375 2575.125,521.7031 Q2575.3594,521.9531 2575.3594,522.5625 L2575.3594,524.0156 Q2575.3594,524.625 2575.125,524.8906 Q2574.8906,525.1563 2574.5156,525.1563 Q2574.1719,525.1563 2573.9688,524.9531 Q2573.7656,524.7656 2573.6563,524.25 Q2573.6094,523.8906 2573.4219,523.7031 Q2573.0938,523.3281 2572.4844,523.1094 Q2571.875,522.8906 2571.25,522.8906 Q2570.4844,522.8906 2569.8438,523.2188 Q2569.2188,523.5469 2568.7188,524.2969 Q2568.2344,525.0469 2568.2344,526.0781 L2568.2344,527.1719 Q2568.2344,528.4063 2569.125,529.2344 Q2570.0156,530.0469 2571.6094,530.0469 Q2572.5469,530.0469 2573.2031,529.7969 Q2573.5938,529.6406 2574.0156,529.2031 Q2574.2813,528.9375 2574.4219,528.8594 Q2574.5781,528.7813 2574.7813,528.7813 Q2575.1094,528.7813 2575.3594,529.0469 Q2575.625,529.2969 2575.625,529.6406 Q2575.625,529.9844 2575.2813,530.3906 Q2574.7813,530.9688 2573.9844,531.2969 Q2572.9063,531.75 2571.6094,531.75 Q2570.0938,531.75 2568.8906,531.125 Q2567.9063,530.625 2567.2188,529.5625 Q2566.5313,528.4844 2566.5313,527.2031 L2566.5313,526.0469 Q2566.5313,524.7188 2567.1406,523.5781 Q2567.7656,522.4219 2568.8594,521.8125 Q2569.9531,521.1875 2571.1875,521.1875 Q2571.9219,521.1875 2572.5625,521.3594 Q2573.2188,521.5156 2573.7656,521.875 Z " fill="#000000"/><text fill="#000000" font-family="sans-serif" font-size="14" lengthAdjust="spacing" textLength="132" x="2585" y="531.7285">TextEditingController</text><line style="stroke:#181818;stroke-width:0.5;" x1="2557" x2="2719" y1="542" y2="542"/><line style="stroke:#181818;stroke-width:0.5;" x1="2557" x2="2719" y1="550" y2="550"/></g><!--MD5=[1e6c6c581c413f426dbc4e059a869eef]
class coders_combo_chatapp::widgets::massage_textfield.dart::MassageTextField--><g id="elem_coders_combo_chatapp::widgets::massage_textfield.dart::MassageTextField"><rect codeLine="95" fill="#F1F1F1" height="100.8281" id="coders_combo_chatapp::widgets::massage_textfield.dart::MassageTextField" rx="2.5" ry="2.5" style="stroke:#181818;stroke-width:0.5;" width="277" x="2529.5" y="271.5"/><ellipse cx="2606.25" cy="287.5" fill="#ADD1B2" rx="11" ry="11" style="stroke:#181818;stroke-width:1.0;"/><path d="M2609.0156,283.375 Q2609.1719,283.1563 2609.3594,283.0469 Q2609.5469,282.9375 2609.7656,282.9375 Q2610.1406,282.9375 2610.375,283.2031 Q2610.6094,283.4531 2610.6094,284.0625 L2610.6094,285.5156 Q2610.6094,286.125 2610.375,286.3906 Q2610.1406,286.6563 2609.7656,286.6563 Q2609.4219,286.6563 2609.2188,286.4531 Q2609.0156,286.2656 2608.9063,285.75 Q2608.8594,285.3906 2608.6719,285.2031 Q2608.3438,284.8281 2607.7344,284.6094 Q2607.125,284.3906 2606.5,284.3906 Q2605.7344,284.3906 2605.0938,284.7188 Q2604.4688,285.0469 2603.9688,285.7969 Q2603.4844,286.5469 2603.4844,287.5781 L2603.4844,288.6719 Q2603.4844,289.9063 2604.375,290.7344 Q2605.2656,291.5469 2606.8594,291.5469 Q2607.7969,291.5469 2608.4531,291.2969 Q2608.8438,291.1406 2609.2656,290.7031 Q2609.5313,290.4375 2609.6719,290.3594 Q2609.8281,290.2813 2610.0313,290.2813 Q2610.3594,290.2813 2610.6094,290.5469 Q2610.875,290.7969 2610.875,291.1406 Q2610.875,291.4844 2610.5313,291.8906 Q2610.0313,292.4688 2609.2344,292.7969 Q2608.1563,293.25 2606.8594,293.25 Q2605.3438,293.25 2604.1406,292.625 Q2603.1563,292.125 2602.4688,291.0625 Q2601.7813,289.9844 2601.7813,288.7031 L2601.7813,287.5469 Q2601.7813,286.2188 2602.3906,285.0781 Q2603.0156,283.9219 2604.1094,283.3125 Q2605.2031,282.6875 2606.4375,282.6875 Q2607.1719,282.6875 2607.8125,282.8594 Q2608.4688,283.0156 2609.0156,283.375 Z " fill="#000000"/><text fill="#000000" font-family="sans-serif" font-size="14" lengthAdjust="spacing" textLength="115" x="2626.75" y="293.2285">MassageTextField</text><line style="stroke:#181818;stroke-width:0.5;" x1="2530.5" x2="2805.5" y1="303.5" y2="303.5"/><ellipse cx="2540.5" cy="317.8047" fill="none" rx="3" ry="3" style="stroke:#038048;stroke-width:1.0;"/><text fill="#000000" font-family="sans-serif" font-size="14" lengthAdjust="spacing" textLength="97" x="2549.5" y="322.0332">String currentId</text><ellipse cx="2540.5" cy="335.4141" fill="none" rx="3" ry="3" style="stroke:#038048;stroke-width:1.0;"/><text fill="#000000" font-family="sans-serif" font-size="14" lengthAdjust="spacing" textLength="88" x="2549.5" y="339.6426">String friendId</text><line style="stroke:#181818;stroke-width:0.5;" x1="2530.5" x2="2805.5" y1="346.7188" y2="346.7188"/><ellipse cx="2540.5" cy="361.0234" fill="#84BE84" rx="3" ry="3" style="stroke:#038048;stroke-width:1.0;"/><text fill="#000000" font-family="sans-serif" font-size="14" lengthAdjust="spacing" textLength="251" x="2549.5" y="365.252">State&lt;MassageTextField&gt; createState()</text></g><!--MD5=[b1070a7a2121a9095b82a850927f6cd4]
class coders_combo_chatapp::widgets::massage_textfield.dart::_MassageTextFieldState--><g id="elem_coders_combo_chatapp::widgets::massage_textfield.dart::_MassageTextFieldState"><rect codeLine="103" fill="#F1F1F1" height="83.2188" id="coders_combo_chatapp::widgets::massage_textfield.dart::_MassageTextFieldState" rx="2.5" ry="2.5" style="stroke:#181818;stroke-width:0.5;" width="229" x="2841.5" y="280.5"/><ellipse cx="2874.95" cy="296.5" fill="#ADD1B2" rx="11" ry="11" style="stroke:#181818;stroke-width:1.0;"/><path d="M2877.7156,292.375 Q2877.8719,292.1563 2878.0594,292.0469 Q2878.2469,291.9375 2878.4656,291.9375 Q2878.8406,291.9375 2879.075,292.2031 Q2879.3094,292.4531 2879.3094,293.0625 L2879.3094,294.5156 Q2879.3094,295.125 2879.075,295.3906 Q2878.8406,295.6563 2878.4656,295.6563 Q2878.1219,295.6563 2877.9188,295.4531 Q2877.7156,295.2656 2877.6063,294.75 Q2877.5594,294.3906 2877.3719,294.2031 Q2877.0438,293.8281 2876.4344,293.6094 Q2875.825,293.3906 2875.2,293.3906 Q2874.4344,293.3906 2873.7938,293.7188 Q2873.1688,294.0469 2872.6688,294.7969 Q2872.1844,295.5469 2872.1844,296.5781 L2872.1844,297.6719 Q2872.1844,298.9063 2873.075,299.7344 Q2873.9656,300.5469 2875.5594,300.5469 Q2876.4969,300.5469 2877.1531,300.2969 Q2877.5438,300.1406 2877.9656,299.7031 Q2878.2313,299.4375 2878.3719,299.3594 Q2878.5281,299.2813 2878.7313,299.2813 Q2879.0594,299.2813 2879.3094,299.5469 Q2879.575,299.7969 2879.575,300.1406 Q2879.575,300.4844 2879.2313,300.8906 Q2878.7313,301.4688 2877.9344,301.7969 Q2876.8563,302.25 2875.5594,302.25 Q2874.0438,302.25 2872.8406,301.625 Q2871.8563,301.125 2871.1688,300.0625 Q2870.4813,298.9844 2870.4813,297.7031 L2870.4813,296.5469 Q2870.4813,295.2188 2871.0906,294.0781 Q2871.7156,292.9219 2872.8094,292.3125 Q2873.9031,291.6875 2875.1375,291.6875 Q2875.8719,291.6875 2876.5125,291.8594 Q2877.1688,292.0156 2877.7156,292.375 Z " fill="#000000"/><text fill="#000000" font-family="sans-serif" font-size="14" lengthAdjust="spacing" textLength="156" x="2893.05" y="302.2285">_MassageTextFieldState</text><line style="stroke:#181818;stroke-width:0.5;" x1="2842.5" x2="3069.5" y1="312.5" y2="312.5"/><rect fill="none" height="6" style="stroke:#C82930;stroke-width:1.0;" width="6" x="2849.5" y="323.8047"/><text fill="#000000" font-family="sans-serif" font-size="14" lengthAdjust="spacing" textLength="203" x="2861.5" y="331.0332">TextEditingController _controller</text><line style="stroke:#181818;stroke-width:0.5;" x1="2842.5" x2="3069.5" y1="338.1094" y2="338.1094"/><ellipse cx="2852.5" cy="352.4141" fill="#84BE84" rx="3" ry="3" style="stroke:#038048;stroke-width:1.0;"/><text fill="#000000" font-family="sans-serif" font-size="14" lengthAdjust="spacing" textLength="88" x="2861.5" y="356.6426">Widget build()</text></g><!--MD5=[53ff1b0f2d50e712212a3abde6fdd892]
class coders_combo_chatapp::widgets::single_message.dart::SingleMessage--><g id="elem_coders_combo_chatapp::widgets::single_message.dart::SingleMessage"><rect codeLine="111" fill="#F1F1F1" height="100.8281" id="coders_combo_chatapp::widgets::single_message.dart::SingleMessage" rx="2.5" ry="2.5" style="stroke:#181818;stroke-width:0.5;" width="128" x="3127" y="271.5"/><ellipse cx="3142" cy="287.5" fill="#ADD1B2" rx="11" ry="11" style="stroke:#181818;stroke-width:1.0;"/><path d="M3144.7656,283.375 Q3144.9219,283.1563 3145.1094,283.0469 Q3145.2969,282.9375 3145.5156,282.9375 Q3145.8906,282.9375 3146.125,283.2031 Q3146.3594,283.4531 3146.3594,284.0625 L3146.3594,285.5156 Q3146.3594,286.125 3146.125,286.3906 Q3145.8906,286.6563 3145.5156,286.6563 Q3145.1719,286.6563 3144.9688,286.4531 Q3144.7656,286.2656 3144.6563,285.75 Q3144.6094,285.3906 3144.4219,285.2031 Q3144.0938,284.8281 3143.4844,284.6094 Q3142.875,284.3906 3142.25,284.3906 Q3141.4844,284.3906 3140.8438,284.7188 Q3140.2188,285.0469 3139.7188,285.7969 Q3139.2344,286.5469 3139.2344,287.5781 L3139.2344,288.6719 Q3139.2344,289.9063 3140.125,290.7344 Q3141.0156,291.5469 3142.6094,291.5469 Q3143.5469,291.5469 3144.2031,291.2969 Q3144.5938,291.1406 3145.0156,290.7031 Q3145.2813,290.4375 3145.4219,290.3594 Q3145.5781,290.2813 3145.7813,290.2813 Q3146.1094,290.2813 3146.3594,290.5469 Q3146.625,290.7969 3146.625,291.1406 Q3146.625,291.4844 3146.2813,291.8906 Q3145.7813,292.4688 3144.9844,292.7969 Q3143.9063,293.25 3142.6094,293.25 Q3141.0938,293.25 3139.8906,292.625 Q3138.9063,292.125 3138.2188,291.0625 Q3137.5313,289.9844 3137.5313,288.7031 L3137.5313,287.5469 Q3137.5313,286.2188 3138.1406,285.0781 Q3138.7656,283.9219 3139.8594,283.3125 Q3140.9531,282.6875 3142.1875,282.6875 Q3142.9219,282.6875 3143.5625,282.8594 Q3144.2188,283.0156 3144.7656,283.375 Z " fill="#000000"/><text fill="#000000" font-family="sans-serif" font-size="14" lengthAdjust="spacing" textLength="96" x="3156" y="293.2285">SingleMessage</text><line style="stroke:#181818;stroke-width:0.5;" x1="3128" x2="3254" y1="303.5" y2="303.5"/><ellipse cx="3138" cy="317.8047" fill="none" rx="3" ry="3" style="stroke:#038048;stroke-width:1.0;"/><text fill="#000000" font-family="sans-serif" font-size="14" lengthAdjust="spacing" textLength="98" x="3147" y="322.0332">String message</text><ellipse cx="3138" cy="335.4141" fill="none" rx="3" ry="3" style="stroke:#038048;stroke-width:1.0;"/><text fill="#000000" font-family="sans-serif" font-size="14" lengthAdjust="spacing" textLength="60" x="3147" y="339.6426">bool isMe</text><line style="stroke:#181818;stroke-width:0.5;" x1="3128" x2="3254" y1="346.7188" y2="346.7188"/><ellipse cx="3138" cy="361.0234" fill="#84BE84" rx="3" ry="3" style="stroke:#038048;stroke-width:1.0;"/><text fill="#000000" font-family="sans-serif" font-size="14" lengthAdjust="spacing" textLength="88" x="3147" y="365.252">Widget build()</text></g><!--MD5=[c551add40ead374cd78f6b53f6f6f6b3]
reverse link coders_combo_chatapp::firebase_options.dart::DefaultFirebaseOptions to firebase_core_platform_interface::firebase_core_platform_interface.dart::FirebaseOptions--><g id="link_coders_combo_chatapp::firebase_options.dart::DefaultFirebaseOptions_firebase_core_platform_interface::firebase_core_platform_interface.dart::FirebaseOptions"><path codeLine="11" d="M177,191.27 C177,229.39 177,272.1 177,297.76 " fill="none" id="coders_combo_chatapp::firebase_options.dart::DefaultFirebaseOptions-backto-firebase_core_platform_interface::firebase_core_platform_interface.dart::FirebaseOptions" style="stroke:#181818;stroke-width:1.0;"/><polygon fill="none" points="177,178.02,173,184.02,177,190.02,181,184.02,177,178.02" style="stroke:#181818;stroke-width:1.0;"/></g><!--MD5=[9aa9ddddc8182b4968b1487a1c1d2e00]
reverse link flutter::src::widgets::framework.dart::StatelessWidget to coders_combo_chatapp::main.dart::MyApp--><g id="link_flutter::src::widgets::framework.dart::StatelessWidget_coders_combo_chatapp::main.dart::MyApp"><path codeLine="18" d="M1939.45,130.86 C1860.06,149.57 1739.44,179.26 1636,210 C1564.27,231.32 1484.76,258.41 1422.34,280.49 " fill="none" id="flutter::src::widgets::framework.dart::StatelessWidget-backto-coders_combo_chatapp::main.dart::MyApp" style="stroke:#181818;stroke-width:1.0;"/><polygon fill="none" points="1937.89,124.03,1958.96,126.28,1941.09,137.66,1937.89,124.03" style="stroke:#181818;stroke-width:1.0;"/></g><!--MD5=[5cebe7e5025435154e1a380f64cc4a65]
reverse link coders_combo_chatapp::model::user_model.dart::UserModel to cloud_firestore_platform_interface::src::timestamp.dart::Timestamp--><g id="link_coders_combo_chatapp::model::user_model.dart::UserModel_cloud_firestore_platform_interface::src::timestamp.dart::Timestamp"><path codeLine="28" d="M1738,615.05 C1738,637.94 1738,661.13 1738,677.64 " fill="none" id="coders_combo_chatapp::model::user_model.dart::UserModel-backto-cloud_firestore_platform_interface::src::timestamp.dart::Timestamp" style="stroke:#181818;stroke-width:1.0;"/><polygon fill="none" points="1738,602.04,1734,608.04,1738,614.04,1742,608.04,1738,602.04" style="stroke:#181818;stroke-width:1.0;"/></g><!--MD5=[1f76fad43510f76e8d7ea06f2adf5175]
reverse link flutter::src::widgets::framework.dart::StatefulWidget to coders_combo_chatapp::screens::auth_screen.dart::AuthScreen--><g id="link_flutter::src::widgets::framework.dart::StatefulWidget_coders_combo_chatapp::screens::auth_screen.dart::AuthScreen"><path codeLine="34" d="M2213.72,151.05 C2227.48,170.25 2246.71,191.35 2270,202 C2295.29,213.56 3243.47,206.09 3271,210 C3378.9,225.31 3498.92,261.97 3578.03,288.99 " fill="none" id="flutter::src::widgets::framework.dart::StatefulWidget-backto-coders_combo_chatapp::screens::auth_screen.dart::AuthScreen" style="stroke:#181818;stroke-width:1.0;"/><polygon fill="none" points="2207.84,154.85,2202.65,134.3,2219.52,147.13,2207.84,154.85" style="stroke:#181818;stroke-width:1.0;"/></g><!--MD5=[e7cf3f184c055223f36946dd76f6444c]
reverse link coders_combo_chatapp::screens::auth_screen.dart::_AuthScreenState to google_sign_in::google_sign_in.dart::GoogleSignIn--><g id="link_coders_combo_chatapp::screens::auth_screen.dart::_AuthScreenState_google_sign_in::google_sign_in.dart::GoogleSignIn"><path codeLine="43" d="M3904.57,393.21 C3886.47,433.65 3864.89,481.85 3852.39,509.79 " fill="none" id="coders_combo_chatapp::screens::auth_screen.dart::_AuthScreenState-backto-google_sign_in::google_sign_in.dart::GoogleSignIn" style="stroke:#181818;stroke-width:1.0;"/><polygon fill="none" points="3909.94,381.22,3903.8359,385.0593,3905.0321,392.1705,3911.1362,388.3312,3909.94,381.22" style="stroke:#181818;stroke-width:1.0;"/></g><!--MD5=[60e8fd5a20b9d39f303c7db695b030bc]
reverse link coders_combo_chatapp::screens::auth_screen.dart::_AuthScreenState to cloud_firestore::cloud_firestore.dart::FirebaseFirestore--><g id="link_coders_combo_chatapp::screens::auth_screen.dart::_AuthScreenState_cloud_firestore::cloud_firestore.dart::FirebaseFirestore"><path codeLine="44" d="M3967.43,393.21 C3985.53,433.65 4007.11,481.85 4019.61,509.79 " fill="none" id="coders_combo_chatapp::screens::auth_screen.dart::_AuthScreenState-backto-cloud_firestore::cloud_firestore.dart::FirebaseFirestore" style="stroke:#181818;stroke-width:1.0;"/><polygon fill="none" points="3962.06,381.22,3960.8638,388.3312,3966.9679,392.1705,3968.1641,385.0593,3962.06,381.22" style="stroke:#181818;stroke-width:1.0;"/></g><!--MD5=[78731c6caea8cbaecb3ad75932d391a3]
reverse link flutter::src::widgets::framework.dart::State to coders_combo_chatapp::screens::auth_screen.dart::_AuthScreenState--><g id="link_flutter::src::widgets::framework.dart::State_coders_combo_chatapp::screens::auth_screen.dart::_AuthScreenState"><path codeLine="45" d="M2372.77,112.65 C2620.64,120.68 3663.05,157.33 3798,210 C3828.07,221.74 3856.69,242.52 3879.99,262.95 " fill="none" id="flutter::src::widgets::framework.dart::State-backto-coders_combo_chatapp::screens::auth_screen.dart::_AuthScreenState" style="stroke:#181818;stroke-width:1.0;"/><polygon fill="none" points="2372.31,119.64,2352.54,112.01,2372.75,105.65,2372.31,119.64" style="stroke:#181818;stroke-width:1.0;"/></g><!--MD5=[f28cec4fff9518d8a2a4e0a5d12b6840]
reverse link coders_combo_chatapp::screens::chat_screen.dart::ChatScreen to coders_combo_chatapp::model::user_model.dart::UserModel--><g id="link_coders_combo_chatapp::screens::chat_screen.dart::ChatScreen_coders_combo_chatapp::model::user_model.dart::UserModel"><path codeLine="55" d="M1738,403.06 C1738,423.8 1738,445.9 1738,465.89 " fill="none" id="coders_combo_chatapp::screens::chat_screen.dart::ChatScreen-backto-coders_combo_chatapp::model::user_model.dart::UserModel" style="stroke:#181818;stroke-width:1.0;"/><polygon fill="none" points="1738,390.02,1734,396.02,1738,402.02,1742,396.02,1738,390.02" style="stroke:#181818;stroke-width:1.0;"/></g><!--MD5=[1006aa24e0ff24f29eeef69a803d441e]
reverse link flutter::src::widgets::framework.dart::StatelessWidget to coders_combo_chatapp::screens::chat_screen.dart::ChatScreen--><g id="link_flutter::src::widgets::framework.dart::StatelessWidget_coders_combo_chatapp::screens::chat_screen.dart::ChatScreen"><path codeLine="56" d="M1966.27,144.15 C1934.97,162.35 1896.49,186.04 1864,210 C1845.82,223.41 1827.09,238.87 1809.83,253.92 " fill="none" id="flutter::src::widgets::framework.dart::StatelessWidget-backto-coders_combo_chatapp::screens::chat_screen.dart::ChatScreen" style="stroke:#181818;stroke-width:1.0;"/><polygon fill="none" points="1962.94,137.99,1983.77,134.11,1969.91,150.14,1962.94,137.99" style="stroke:#181818;stroke-width:1.0;"/></g><!--MD5=[09911e8ea984a46c48075f5a1413ddef]
reverse link coders_combo_chatapp::screens::home_screen.dart::HomeScreen to coders_combo_chatapp::model::user_model.dart::UserModel--><g id="link_coders_combo_chatapp::screens::home_screen.dart::HomeScreen_coders_combo_chatapp::model::user_model.dart::UserModel"><path codeLine="63" d="M1093.39,370.4 C1120.39,386.15 1151.77,402.57 1182,414 C1353.52,478.82 1568.86,512.23 1674.12,525.68 " fill="none" id="coders_combo_chatapp::screens::home_screen.dart::HomeScreen-backto-coders_combo_chatapp::model::user_model.dart::UserModel" style="stroke:#181818;stroke-width:1.0;"/><polygon fill="none" points="1082.1,363.7,1085.2225,370.2,1092.4235,369.8176,1089.301,363.3176,1082.1,363.7" style="stroke:#181818;stroke-width:1.0;"/></g><!--MD5=[0bf1af313e29b5d34ec21fcc079b602a]
reverse link flutter::src::widgets::framework.dart::StatefulWidget to coders_combo_chatapp::screens::home_screen.dart::HomeScreen--><g id="link_flutter::src::widgets::framework.dart::StatefulWidget_coders_combo_chatapp::screens::home_screen.dart::HomeScreen"><path codeLine="64" d="M2166.48,151.33 C2152.93,170.45 2134.01,191.39 2111,202 C2087.57,212.81 1206.62,202.26 1182,210 C1137.44,224.01 1094.18,254.82 1063.59,280.43 " fill="none" id="flutter::src::widgets::framework.dart::StatefulWidget-backto-coders_combo_chatapp::screens::home_screen.dart::HomeScreen" style="stroke:#181818;stroke-width:1.0;"/><polygon fill="none" points="2160.8,147.23,2177.58,134.29,2172.53,154.87,2160.8,147.23" style="stroke:#181818;stroke-width:1.0;"/></g><!--MD5=[4ebabd2247399a163f57dc6bc13c43c3]
reverse link flutter::src::widgets::framework.dart::State to coders_combo_chatapp::screens::home_screen.dart::_HomeScreenState--><g id="link_flutter::src::widgets::framework.dart::State_coders_combo_chatapp::screens::home_screen.dart::_HomeScreenState"><path codeLine="73" d="M2307.62,153.27 C2299.92,171.6 2287.97,191.3 2270,202 C2253.42,211.87 899.22,203.66 881,210 C849.52,220.94 819.66,241.99 795.52,262.85 " fill="none" id="flutter::src::widgets::framework.dart::State-backto-coders_combo_chatapp::screens::home_screen.dart::_HomeScreenState" style="stroke:#181818;stroke-width:1.0;"/><polygon fill="none" points="2301.05,150.86,2314.39,134.39,2314.23,155.58,2301.05,150.86" style="stroke:#181818;stroke-width:1.0;"/></g><!--MD5=[088ce433688e288ca091615b6c9ac0ce]
reverse link flutter::src::widgets::binding.dart::WidgetsBindingObserver to coders_combo_chatapp::screens::home_screen.dart::_HomeScreenState--><g id="link_flutter::src::widgets::binding.dart::WidgetsBindingObserver_coders_combo_chatapp::screens::home_screen.dart::_HomeScreenState"><path codeLine="74" d="M739,154.37 C739,185.71 739,228.39 739,262.71 " fill="none" id="flutter::src::widgets::binding.dart::WidgetsBindingObserver-backto-coders_combo_chatapp::screens::home_screen.dart::_HomeScreenState" style="stroke:#181818;stroke-width:1.0;"/><polygon fill="none" points="732,154.28,739,134.28,746,154.28,732,154.28" style="stroke:#181818;stroke-width:1.0;"/></g><!--MD5=[a2aa6d04cf71dd9b85455cb439816c5c]
reverse link coders_combo_chatapp::screens::search_screen.dart::SearchScreen to coders_combo_chatapp::model::user_model.dart::UserModel--><g id="link_coders_combo_chatapp::screens::search_screen.dart::SearchScreen_coders_combo_chatapp::model::user_model.dart::UserModel"><path codeLine="81" d="M1943.75,371.78 C1901.08,405.22 1844.63,449.44 1801.66,483.12 " fill="none" id="coders_combo_chatapp::screens::search_screen.dart::SearchScreen-backto-coders_combo_chatapp::model::user_model.dart::UserModel" style="stroke:#181818;stroke-width:1.0;"/><polygon fill="none" points="1954.01,363.74,1946.82,364.2919,1944.5641,371.141,1951.7541,370.5891,1954.01,363.74" style="stroke:#181818;stroke-width:1.0;"/></g><!--MD5=[d46124520eecf19fe14ecbc3d4c9c5f8]
reverse link flutter::src::widgets::framework.dart::StatefulWidget to coders_combo_chatapp::screens::search_screen.dart::SearchScreen--><g id="link_flutter::src::widgets::framework.dart::StatefulWidget_coders_combo_chatapp::screens::search_screen.dart::SearchScreen"><path codeLine="82" d="M2156.82,149.36 C2142.72,165.62 2126.09,184.76 2111,202 C2088.14,228.12 2062.34,257.36 2042.04,280.32 " fill="none" id="flutter::src::widgets::framework.dart::StatefulWidget-backto-coders_combo_chatapp::screens::search_screen.dart::SearchScreen" style="stroke:#181818;stroke-width:1.0;"/><polygon fill="none" points="2151.53,144.77,2169.92,134.23,2162.12,153.93,2151.53,144.77" style="stroke:#181818;stroke-width:1.0;"/></g><!--MD5=[783397243f85c506d1a9ee7e22ac1233]
reverse link coders_combo_chatapp::screens::search_screen.dart::_SearchScreenState to flutter::src::widgets::editable_text.dart::TextEditingController--><g id="link_coders_combo_chatapp::screens::search_screen.dart::_SearchScreenState_flutter::src::widgets::editable_text.dart::TextEditingController"><path codeLine="92" d="M2432.55,397.32 C2492.42,436.86 2561.92,482.76 2602.8,509.76 " fill="none" id="coders_combo_chatapp::screens::search_screen.dart::_SearchScreenState-backto-flutter::src::widgets::editable_text.dart::TextEditingController" style="stroke:#181818;stroke-width:1.0;"/><polygon fill="none" points="2421.49,390.02,2424.2878,396.6662,2431.4989,396.6398,2428.7011,389.9936,2421.49,390.02" style="stroke:#181818;stroke-width:1.0;"/></g><!--MD5=[51b5fb148ed1a5e5571ecfdeda278fa8]
reverse link flutter::src::widgets::framework.dart::State to coders_combo_chatapp::screens::search_screen.dart::_SearchScreenState--><g id="link_flutter::src::widgets::framework.dart::State_coders_combo_chatapp::screens::search_screen.dart::_SearchScreenState"><path codeLine="93" d="M2320,154.51 C2320,183.14 2320,221.2 2320,253.7 " fill="none" id="flutter::src::widgets::framework.dart::State-backto-coders_combo_chatapp::screens::search_screen.dart::_SearchScreenState" style="stroke:#181818;stroke-width:1.0;"/><polygon fill="none" points="2313,154.28,2320,134.28,2327,154.28,2313,154.28" style="stroke:#181818;stroke-width:1.0;"/></g><!--MD5=[d573e238f56f1c361e696f92612e07d7]
reverse link flutter::src::widgets::framework.dart::StatefulWidget to coders_combo_chatapp::widgets::massage_textfield.dart::MassageTextField--><g id="link_flutter::src::widgets::framework.dart::StatefulWidget_coders_combo_chatapp::widgets::massage_textfield.dart::MassageTextField"><path codeLine="101" d="M2213.84,150.78 C2227.64,169.91 2246.87,191.02 2270,202 C2292,212.44 2465.71,202.9 2489,210 C2531.15,222.84 2573.28,248.19 2606.07,271.42 " fill="none" id="flutter::src::widgets::framework.dart::StatefulWidget-backto-coders_combo_chatapp::widgets::massage_textfield.dart::MassageTextField" style="stroke:#181818;stroke-width:1.0;"/><polygon fill="none" points="2208.01,154.64,2202.74,134.12,2219.66,146.88,2208.01,154.64" style="stroke:#181818;stroke-width:1.0;"/></g><!--MD5=[c54f868b9e58d6c9b1f9fe44faa13257]
reverse link coders_combo_chatapp::widgets::massage_textfield.dart::_MassageTextFieldState to flutter::src::widgets::editable_text.dart::TextEditingController--><g id="link_coders_combo_chatapp::widgets::massage_textfield.dart::_MassageTextFieldState_flutter::src::widgets::editable_text.dart::TextEditingController"><path codeLine="108" d="M2887.4,370.95 C2867.09,384.97 2844.73,400.23 2824,414 C2772.75,448.05 2712.65,486.18 2674.94,509.89 " fill="none" id="coders_combo_chatapp::widgets::massage_textfield.dart::_MassageTextFieldState-backto-flutter::src::widgets::editable_text.dart::TextEditingController" style="stroke:#181818;stroke-width:1.0;"/><polygon fill="none" points="2898.14,363.53,2890.93,363.6575,2888.2746,370.3619,2895.4846,370.2344,2898.14,363.53" style="stroke:#181818;stroke-width:1.0;"/></g><!--MD5=[e466ddc29b01ec4841c2f772fa5a6dea]
reverse link flutter::src::widgets::framework.dart::State to coders_combo_chatapp::widgets::massage_textfield.dart::_MassageTextFieldState--><g id="link_flutter::src::widgets::framework.dart::State_coders_combo_chatapp::widgets::massage_textfield.dart::_MassageTextFieldState"><path codeLine="109" d="M2372.82,112.76 C2467.68,117.75 2671.23,136.85 2824,210 C2859.78,227.13 2893.89,256.27 2918.46,280.39 " fill="none" id="flutter::src::widgets::framework.dart::State-backto-coders_combo_chatapp::widgets::massage_textfield.dart::_MassageTextFieldState" style="stroke:#181818;stroke-width:1.0;"/><polygon fill="none" points="2372.37,119.75,2352.71,111.83,2373.01,105.76,2372.37,119.75" style="stroke:#181818;stroke-width:1.0;"/></g><!--MD5=[9d79fa20616611379079e21ec2666806]
reverse link flutter::src::widgets::framework.dart::StatelessWidget to coders_combo_chatapp::widgets::single_message.dart::SingleMessage--><g id="link_flutter::src::widgets::framework.dart::StatelessWidget_coders_combo_chatapp::widgets::single_message.dart::SingleMessage"><path codeLine="117" d="M2051.51,150.81 C2066.3,170.11 2086.78,191.36 2111,202 C2160.65,223.8 3037.34,188.23 3087,210 C3116.14,222.77 3140.89,248.12 3158.93,271.36 " fill="none" id="flutter::src::widgets::framework.dart::StatelessWidget-backto-coders_combo_chatapp::widgets::single_message.dart::SingleMessage" style="stroke:#181818;stroke-width:1.0;"/><polygon fill="none" points="2045.68,154.7,2039.81,134.34,2057.1,146.59,2045.68,154.7" style="stroke:#181818;stroke-width:1.0;"/></g><!--MD5=[b5410cafebca6624853a6dbe1d5b8b4c]
@startuml
set namespaceSeparator ::

class "coders_combo_chatapp::firebase_options.dart::DefaultFirebaseOptions" {
  {static} +FirebaseOptions web
  {static} +FirebaseOptions android
  {static} +FirebaseOptions ios
  {static} +FirebaseOptions macos
  {static} +FirebaseOptions currentPlatform
}

"coders_combo_chatapp::firebase_options.dart::DefaultFirebaseOptions" o- - "firebase_core_platform_interface::firebase_core_platform_interface.dart::FirebaseOptions"

class "coders_combo_chatapp::main.dart::MyApp" {
  +Future<Widget> UserSignedIn()
  +Widget build()
}

"flutter::src::widgets::framework.dart::StatelessWidget" <|- - "coders_combo_chatapp::main.dart::MyApp"

class "coders_combo_chatapp::model::user_model.dart::UserModel" {
  +String email
  +String name
  +String Image
  +Timestamp data
  +String uid
}

"coders_combo_chatapp::model::user_model.dart::UserModel" o- - "cloud_firestore_platform_interface::src::timestamp.dart::Timestamp"

class "coders_combo_chatapp::screens::auth_screen.dart::AuthScreen" {
  +_AuthScreenState createState()
}

"flutter::src::widgets::framework.dart::StatefulWidget" <|- - "coders_combo_chatapp::screens::auth_screen.dart::AuthScreen"

class "coders_combo_chatapp::screens::auth_screen.dart::_AuthScreenState" {
  +GoogleSignIn googleSignIn
  +FirebaseFirestore firestore
  +Future<dynamic> signInFunction()
  +Widget build()
}

"coders_combo_chatapp::screens::auth_screen.dart::_AuthScreenState" o- - "google_sign_in::google_sign_in.dart::GoogleSignIn"
"coders_combo_chatapp::screens::auth_screen.dart::_AuthScreenState" o- - "cloud_firestore::cloud_firestore.dart::FirebaseFirestore"
"flutter::src::widgets::framework.dart::State" <|- - "coders_combo_chatapp::screens::auth_screen.dart::_AuthScreenState"

class "coders_combo_chatapp::screens::chat_screen.dart::ChatScreen" {
  +UserModel currentUser
  +String friendId
  +String friendName
  +String friendImage
  +Widget build()
}

"coders_combo_chatapp::screens::chat_screen.dart::ChatScreen" o- - "coders_combo_chatapp::model::user_model.dart::UserModel"
"flutter::src::widgets::framework.dart::StatelessWidget" <|- - "coders_combo_chatapp::screens::chat_screen.dart::ChatScreen"

class "coders_combo_chatapp::screens::home_screen.dart::HomeScreen" {
  +UserModel user
  +State<HomeScreen> createState()
}

"coders_combo_chatapp::screens::home_screen.dart::HomeScreen" o- - "coders_combo_chatapp::model::user_model.dart::UserModel"
"flutter::src::widgets::framework.dart::StatefulWidget" <|- - "coders_combo_chatapp::screens::home_screen.dart::HomeScreen"

class "coders_combo_chatapp::screens::home_screen.dart::_HomeScreenState" {
  +void initState()
  +void setStatus()
  +void didChangeAppLifecycleState()
  +Widget build()
}

"flutter::src::widgets::framework.dart::State" <|- - "coders_combo_chatapp::screens::home_screen.dart::_HomeScreenState"
"flutter::src::widgets::binding.dart::WidgetsBindingObserver" <|- - "coders_combo_chatapp::screens::home_screen.dart::_HomeScreenState"

class "coders_combo_chatapp::screens::search_screen.dart::SearchScreen" {
  +UserModel user
  +State<SearchScreen> createState()
}

"coders_combo_chatapp::screens::search_screen.dart::SearchScreen" o- - "coders_combo_chatapp::model::user_model.dart::UserModel"
"flutter::src::widgets::framework.dart::StatefulWidget" <|- - "coders_combo_chatapp::screens::search_screen.dart::SearchScreen"

class "coders_combo_chatapp::screens::search_screen.dart::_SearchScreenState" {
  +TextEditingController searchController
  +List<Map<dynamic, dynamic>> searchResult
  +bool isloading
  +void onSearch()
  +Widget build()
}

"coders_combo_chatapp::screens::search_screen.dart::_SearchScreenState" o- - "flutter::src::widgets::editable_text.dart::TextEditingController"
"flutter::src::widgets::framework.dart::State" <|- - "coders_combo_chatapp::screens::search_screen.dart::_SearchScreenState"

class "coders_combo_chatapp::widgets::massage_textfield.dart::MassageTextField" {
  +String currentId
  +String friendId
  +State<MassageTextField> createState()
}

"flutter::src::widgets::framework.dart::StatefulWidget" <|- - "coders_combo_chatapp::widgets::massage_textfield.dart::MassageTextField"

class "coders_combo_chatapp::widgets::massage_textfield.dart::_MassageTextFieldState" {
  -TextEditingController _controller
  +Widget build()
}

"coders_combo_chatapp::widgets::massage_textfield.dart::_MassageTextFieldState" o- - "flutter::src::widgets::editable_text.dart::TextEditingController"     
"flutter::src::widgets::framework.dart::State" <|- - "coders_combo_chatapp::widgets::massage_textfield.dart::_MassageTextFieldState"

class "coders_combo_chatapp::widgets::single_message.dart::SingleMessage" {
  +String message
  +bool isMe
  +Widget build()
}

"flutter::src::widgets::framework.dart::StatelessWidget" <|- - "coders_combo_chatapp::widgets::single_message.dart::SingleMessage"


@enduml

PlantUML version 1.2022.7(Mon Aug 22 23:01:30 BDT 2022)
(GPL source distribution)
Java Runtime: Java(TM) SE Runtime Environment
JVM: Java HotSpot(TM) 64-Bit Server VM
Default Encoding: UTF-8
Language: en
Country: US
--></g></svg>